<svg width="325" height="184" viewBox="0 0 325 184" fill="none" xmlns="http://www.w3.org/2000/svg">
<path d="M318.7 157.245H9.46602L15.7657 59.4296H325L318.7 157.245Z" fill="url(#paint0_linear_3660_5170)"/>
<path d="M305.69 175.388H0L6.68877 71.2621H312.379L305.69 175.388Z" fill="url(#paint1_linear_3660_5170)"/>
<path d="M157.971 161.267C152.388 161.267 147.529 160.408 143.393 158.691C139.28 156.95 136.206 154.589 134.172 151.606C132.138 148.6 131.438 145.221 132.07 141.469C132.568 138.622 133.732 136.011 135.562 133.638C137.415 131.265 139.698 129.288 142.41 127.706C145.122 126.124 148.004 125.107 151.055 124.654V124.112C147.303 123.434 144.376 121.671 142.275 118.824C140.195 115.976 139.461 112.631 140.071 108.789C140.659 105.15 142.331 101.918 145.088 99.0934C147.868 96.2458 151.394 94.0083 155.665 92.3811C159.959 90.7539 164.66 89.9403 169.768 89.9403C174.876 89.9403 179.294 90.7652 183.023 92.415C186.752 94.0422 189.532 96.2797 191.363 99.1273C193.193 101.952 193.815 105.173 193.227 108.789C192.594 112.676 190.775 116.032 187.769 118.857C184.763 121.683 181.204 123.434 177.091 124.112V124.654C180.006 125.107 182.549 126.124 184.718 127.706C186.91 129.265 188.526 131.231 189.566 133.604C190.606 135.977 190.877 138.599 190.38 141.469C189.747 145.198 187.927 148.566 184.922 151.572C181.916 154.555 178.074 156.917 173.395 158.657C168.74 160.397 163.598 161.267 157.971 161.267ZM160.14 148.249C161.926 148.249 163.564 147.888 165.056 147.165C166.547 146.419 167.79 145.413 168.785 144.147C169.802 142.859 170.446 141.424 170.717 139.842C170.988 138.215 170.83 136.78 170.243 135.537C169.655 134.294 168.717 133.322 167.429 132.621C166.163 131.921 164.638 131.57 162.852 131.57C161.067 131.57 159.417 131.932 157.903 132.655C156.411 133.356 155.168 134.327 154.174 135.571C153.179 136.814 152.546 138.237 152.275 139.842C152.004 141.447 152.162 142.893 152.75 144.181C153.36 145.447 154.309 146.441 155.598 147.165C156.886 147.888 158.4 148.249 160.14 148.249ZM165.022 118.552C166.604 118.552 168.05 118.225 169.361 117.569C170.695 116.891 171.802 115.976 172.683 114.823C173.565 113.671 174.13 112.382 174.378 110.959C174.627 109.49 174.503 108.201 174.006 107.094C173.508 105.964 172.706 105.083 171.599 104.45C170.491 103.817 169.158 103.501 167.598 103.501C166.039 103.501 164.581 103.828 163.225 104.484C161.892 105.116 160.762 105.998 159.835 107.128C158.931 108.235 158.355 109.512 158.106 110.959C157.858 112.405 157.993 113.705 158.513 114.857C159.033 115.987 159.846 116.891 160.954 117.569C162.084 118.225 163.44 118.552 165.022 118.552ZM219.389 162.216C213.061 162.216 207.829 160.77 203.693 157.877C199.557 154.962 196.698 150.781 195.116 145.334C193.534 139.887 193.398 133.356 194.709 125.739C196.02 118.1 198.359 111.614 201.726 106.28C205.116 100.947 209.32 96.8899 214.337 94.11C219.377 91.3302 225.039 89.9403 231.322 89.9403C237.605 89.9403 242.803 91.3302 246.916 94.11C251.029 96.8899 253.888 100.947 255.493 106.28C257.097 111.591 257.267 118.078 256.001 125.739C254.736 133.378 252.408 139.921 249.018 145.368C245.65 150.814 241.435 154.984 236.373 157.877C231.333 160.77 225.672 162.216 219.389 162.216ZM221.965 146.893C225.22 146.893 228.135 145.198 230.711 141.808C233.311 138.396 235.232 133.039 236.475 125.739C237.288 120.993 237.48 117.106 237.051 114.078C236.621 111.026 235.695 108.778 234.271 107.331C232.847 105.862 231.05 105.128 228.881 105.128C225.626 105.128 222.666 106.789 219.999 110.111C217.355 113.411 215.434 118.62 214.236 125.739C213.422 130.621 213.241 134.621 213.693 137.74C214.145 140.859 215.095 143.164 216.541 144.656C217.987 146.147 219.795 146.893 221.965 146.893Z" fill="#FDFFFF"/>
<path d="M264.335 99.2903C264.824 96.6788 265.95 94.6548 267.713 93.2185C269.476 91.7822 271.565 91.064 273.981 91.064C276.07 91.064 277.735 91.6189 278.975 92.7288C280.249 93.8061 280.885 95.3567 280.885 97.3806C280.885 98.0335 280.82 98.6701 280.689 99.2903C280.232 101.902 279.122 103.926 277.36 105.362C275.629 106.798 273.557 107.517 271.141 107.517C269.019 107.517 267.322 106.962 266.048 105.852C264.808 104.742 264.188 103.175 264.188 101.151C264.188 100.531 264.237 99.9105 264.335 99.2903ZM297.681 91.5536L272.708 126.026H264.628L289.601 91.5536H297.681ZM273.1 96.0096C271.533 96.0096 270.553 97.1031 270.162 99.2903C270.096 99.8779 270.064 100.253 270.064 100.417C270.064 101.853 270.684 102.571 271.924 102.571C272.675 102.571 273.312 102.31 273.834 101.788C274.356 101.233 274.715 100.4 274.911 99.2903C274.977 98.768 275.009 98.4089 275.009 98.213C275.009 96.7441 274.373 96.0096 273.1 96.0096ZM281.669 118.289C282.126 115.678 283.236 113.654 284.998 112.217C286.761 110.781 288.85 110.063 291.266 110.063C293.355 110.063 295.02 110.601 296.261 111.679C297.501 112.756 298.121 114.307 298.121 116.331C298.121 117.016 298.056 117.669 297.925 118.289C297.468 120.901 296.358 122.925 294.596 124.361C292.866 125.797 290.793 126.515 288.377 126.515C286.288 126.515 284.607 125.977 283.333 124.9C282.093 123.79 281.473 122.223 281.473 120.199C281.473 119.546 281.538 118.909 281.669 118.289ZM290.385 115.008C289.634 115.008 288.997 115.286 288.475 115.841C287.953 116.363 287.594 117.179 287.398 118.289C287.332 118.877 287.3 119.252 287.3 119.415C287.3 120.852 287.936 121.57 289.209 121.57C289.96 121.57 290.58 121.292 291.07 120.737C291.592 120.183 291.952 119.366 292.147 118.289C292.213 117.767 292.245 117.408 292.245 117.212C292.245 115.743 291.625 115.008 290.385 115.008Z" fill="#FDFFFF"/>
<path d="M40.6194 99.7957C40.581 99.2872 40.4755 98.8412 40.3028 98.4575C40.1301 98.0641 39.8855 97.7332 39.5689 97.4646C39.2524 97.1864 38.8591 96.9801 38.389 96.8458C37.9286 96.702 37.3866 96.63 36.763 96.63C35.42 96.63 34.1969 96.9514 33.0937 97.5941C31.9905 98.2368 31.0648 99.1625 30.3166 100.371C29.5779 101.58 29.0695 103.038 28.7913 104.746C28.5035 106.472 28.4795 107.95 28.7194 109.178C28.9592 110.405 29.4772 111.346 30.2734 111.998C31.0792 112.65 32.168 112.976 33.5398 112.976C34.7677 112.976 35.8277 112.799 36.7198 112.444C37.612 112.089 38.3267 111.585 38.8639 110.933C39.4011 110.281 39.7368 109.513 39.8711 108.631L41.2525 108.775H34.5183L35.4392 103.076H48.5047L47.8428 107.163C47.4015 109.849 46.4518 112.147 44.9937 114.056C43.5452 115.955 41.7417 117.413 39.5833 118.43C37.4249 119.437 35.0555 119.941 32.475 119.941C29.6163 119.941 27.2037 119.332 25.2372 118.113C23.2706 116.895 21.8652 115.159 21.0211 112.904C20.1865 110.65 20.0234 107.969 20.5318 104.861C20.9347 102.424 21.6638 100.266 22.719 98.3855C23.7838 96.5053 25.0837 94.9177 26.6185 93.6226C28.1534 92.318 29.8465 91.3347 31.698 90.6728C33.5494 90.0013 35.468 89.6656 37.4537 89.6656C39.19 89.6656 40.768 89.915 42.1878 90.4138C43.6075 90.903 44.821 91.6033 45.8283 92.5147C46.8356 93.4164 47.5886 94.486 48.0874 95.7235C48.5959 96.961 48.8021 98.3184 48.7062 99.7957H40.6194ZM62.394 90.0685L57.5017 119.538H49.5012L54.3936 90.0685H62.394ZM68.9484 119.538H60.3148L74.9343 90.0685H85.8702L90.7051 119.538H82.0715L79.1936 98.1841H78.9634L68.9484 119.538ZM69.2937 107.911H85.5249L84.4889 113.897H68.2577L69.2937 107.911ZM83.7406 86.7877H78.0424L77.8698 84.543C78.8962 84.5142 79.6493 84.3847 80.1289 84.1544C80.6085 83.9242 80.8532 83.6508 80.8628 83.3343C80.9683 82.8162 80.7812 82.4853 80.3016 82.3414C79.8219 82.1975 79.184 82.1255 78.3878 82.1255L79.0785 78.9599C82.0331 78.9599 84.2251 79.3052 85.6544 79.9959C87.0933 80.6866 87.7025 81.6651 87.4819 82.9314C87.3571 83.7372 86.9351 84.3607 86.2156 84.802C85.5057 85.2432 84.7383 85.5214 83.9133 85.6365L83.7406 86.7877ZM98.4357 90.0685H108.393L112.48 106.76H112.825L122.437 90.0685H132.395L127.502 119.538H119.674L122.495 102.501H122.264L112.94 119.308H108.22L104.479 102.386H104.249L101.371 119.538H93.5434L98.4357 90.0685ZM29.7122 161.538H21.4815L22.6327 154.746H30.2303C31.6884 154.746 32.9882 154.492 34.1298 153.983C35.2809 153.465 36.2402 152.602 37.0076 151.393C37.7847 150.175 38.3458 148.511 38.6912 146.4C39.0173 144.405 39.0078 142.865 38.6624 141.781C38.3171 140.688 37.6599 139.93 36.6911 139.508C35.7222 139.076 34.4703 138.86 32.9354 138.86H25.1076L26.2588 132.068H34.1442C37.1755 132.068 39.708 132.678 41.7417 133.896C43.7754 135.114 45.2192 136.855 46.0729 139.119C46.9267 141.383 47.0946 144.079 46.5765 147.206C46.0777 150.218 45.0657 152.794 43.5404 154.933C42.0247 157.072 40.087 158.708 37.7271 159.84C35.3768 160.972 32.7052 161.538 29.7122 161.538ZM31.0936 132.068L26.2012 161.538H18.2008L23.0931 132.068H31.0936ZM16.6467 147.897L17.395 143.637H32.8779L32.1296 147.897H16.6467ZM47.9184 161.538L52.8107 132.068H74.0494L72.9558 138.515H59.7176L58.9118 143.58H71.0564L69.9628 150.026H57.8182L57.0124 155.091H70.1931L69.0995 161.538H47.9184ZM56.3217 130.054L62.7682 126.083H66.164L71.2866 130.054H66.6821L64.1495 128.039L60.8688 130.054H56.3217ZM70.1355 128.155L74.7976 122.629H79.9203L73.9343 128.155H70.1355ZM103.515 132.068L98.6228 161.538H91.9461L83.8881 146.055H83.7154L81.1254 161.538H73.1249L78.0173 132.068H84.809L92.7519 147.494H92.9822L95.5147 132.068H103.515Z" fill="#FDFFFF"/>
<path d="M37.6039 23.4074C37.7087 22.2546 37.4293 21.3522 36.7655 20.7001C36.1018 20.0364 34.984 19.7045 33.412 19.7045C32.4106 19.7045 31.5722 19.821 30.8969 20.0539C30.2331 20.2867 29.715 20.607 29.3424 21.0145C28.9814 21.4221 28.7543 21.8936 28.6612 22.4293C28.5564 22.8485 28.5622 23.2327 28.6786 23.5821C28.8067 23.9197 29.0454 24.2283 29.3948 24.5078C29.7557 24.7872 30.2273 25.0376 30.8095 25.2588C31.4034 25.4801 32.1079 25.678 32.923 25.8527L35.7176 26.4815C37.6272 26.9007 39.2283 27.4538 40.5208 28.1408C41.825 28.8161 42.8497 29.6196 43.5949 30.5511C44.3401 31.4827 44.8292 32.5248 45.0621 33.6776C45.3066 34.8304 45.3124 36.088 45.0795 37.4503C44.6836 39.8025 43.7695 41.7936 42.3373 43.4238C40.9051 45.054 39.0362 46.2941 36.7306 47.1441C34.4251 47.9942 31.7585 48.4192 28.731 48.4192C25.6337 48.4192 23.0021 47.9592 20.8362 47.0394C18.6821 46.1078 17.1217 44.6872 16.1553 42.7776C15.2004 40.8563 14.9676 38.4052 15.4566 35.4242H24.6788C24.5391 36.5188 24.6556 37.4387 25.0282 38.1839C25.4008 38.9291 26.0005 39.4939 26.8272 39.8782C27.6539 40.2624 28.6845 40.4545 29.9187 40.4545C30.9667 40.4545 31.8633 40.3265 32.6086 40.0703C33.3538 39.8141 33.9418 39.459 34.3727 39.0048C34.8035 38.5507 35.0655 38.0325 35.1586 37.4503C35.2518 36.9147 35.1586 36.4373 34.8792 36.0181C34.5997 35.5989 34.0932 35.2205 33.3596 34.8828C32.626 34.5451 31.6188 34.2365 30.3379 33.9571L26.9145 33.1885C23.8754 32.4899 21.5815 31.3371 20.0328 29.7302C18.4841 28.1233 17.9368 25.9225 18.391 23.1279C18.7636 20.8457 19.7009 18.8545 21.203 17.1544C22.7168 15.4427 24.6381 14.1153 26.9669 13.1721C29.3074 12.2173 31.8983 11.7399 34.7395 11.7399C37.6272 11.7399 40.0434 12.2231 41.988 13.1896C43.9442 14.1561 45.3473 15.5126 46.1974 17.2592C47.059 19.0059 47.2919 21.0553 46.896 23.4074H37.6039ZM62.6769 12.2289L56.7383 48H47.027L52.9656 12.2289H62.6769ZM61.3407 48L67.2792 12.2289H93.0596L91.7321 20.0539H75.6631L74.685 26.202H89.4266L88.0991 34.0269H73.3575L72.3794 40.1751H88.3786L87.0511 48H61.3407ZM84.2565 9.01513L81.4619 5.17253L77.4097 9.01513H69.4451L69.48 8.80553L78.807 0.840882H85.5141L92.2561 8.80553L92.2212 9.01513H84.2565ZM119.045 12.2289H128.756L124.949 35.1448C124.506 37.8695 123.47 40.2275 121.84 42.2186C120.221 44.1982 118.16 45.7294 115.657 46.8123C113.153 47.8836 110.37 48.4192 107.308 48.4192C104.222 48.4192 101.614 47.8836 99.4828 46.8123C97.3519 45.7294 95.8032 44.1982 94.8368 42.2186C93.8819 40.2275 93.6258 37.8695 94.0682 35.1448L97.8759 12.2289H107.587L103.919 34.3064C103.745 35.4126 103.832 36.3965 104.181 37.2582C104.531 38.1199 105.095 38.8011 105.875 39.3018C106.656 39.7908 107.599 40.0353 108.705 40.0353C109.823 40.0353 110.853 39.7908 111.797 39.3018C112.751 38.8011 113.543 38.1199 114.172 37.2582C114.801 36.3965 115.203 35.4126 115.377 34.3064L119.045 12.2289ZM177.335 11.5303H182.644C182.225 13.9756 181.562 16.089 180.653 17.8706C179.745 19.6405 178.423 21.0087 176.688 21.9752C174.953 22.93 172.63 23.4074 169.719 23.4074L170.488 19.1456C172.374 19.1456 173.754 18.8312 174.627 18.2024C175.512 17.5736 176.118 16.6887 176.444 15.5475C176.782 14.4064 177.078 13.0673 177.335 11.5303ZM164.34 12.2289H174.051L170.243 35.1448C169.801 37.8695 168.764 40.2275 167.134 42.2186C165.516 44.1982 163.455 45.7294 160.951 46.8123C158.448 47.8836 155.665 48.4192 152.602 48.4192C149.517 48.4192 146.908 47.8836 144.777 46.8123C142.646 45.7294 141.098 44.1982 140.131 42.2186C139.177 40.2275 138.92 37.8695 139.363 35.1448L143.17 12.2289H152.882L149.214 34.3064C149.039 35.4126 149.127 36.3965 149.476 37.2582C149.825 38.1199 150.39 38.8011 151.17 39.3018C151.95 39.7908 152.893 40.0353 154 40.0353C155.117 40.0353 156.148 39.7908 157.091 39.3018C158.046 38.8011 158.838 38.1199 159.467 37.2582C160.095 36.3965 160.497 35.4126 160.672 34.3064L164.34 12.2289ZM207.329 12.2289H217.04L213.232 35.1448C212.79 37.8695 211.754 40.2275 210.123 42.2186C208.505 44.1982 206.444 45.7294 203.94 46.8123C201.437 47.8836 198.654 48.4192 195.591 48.4192C192.506 48.4192 189.897 47.8836 187.766 46.8123C185.636 45.7294 184.087 44.1982 183.12 42.2186C182.166 40.2275 181.909 37.8695 182.352 35.1448L186.16 12.2289H195.871L192.203 34.3064C192.028 35.4126 192.116 36.3965 192.465 37.2582C192.814 38.1199 193.379 38.8011 194.159 39.3018C194.939 39.7908 195.882 40.0353 196.989 40.0353C198.106 40.0353 199.137 39.7908 200.08 39.3018C201.035 38.8011 201.827 38.1199 202.456 37.2582C203.084 36.3965 203.486 35.4126 203.661 34.3064L207.329 12.2289ZM239.489 48H229.498L230.895 39.7559H240.117C241.887 39.7559 243.465 39.4473 244.851 38.8302C246.248 38.2014 247.413 37.1534 248.344 35.6862C249.287 34.2074 249.968 32.1871 250.388 29.6254C250.784 27.2034 250.772 25.3345 250.353 24.0187C249.933 22.6913 249.136 21.7714 247.96 21.259C246.784 20.735 245.264 20.473 243.401 20.473H233.899L235.297 12.2289H244.868C248.548 12.2289 251.622 12.9683 254.09 14.4472C256.559 15.926 258.312 18.0394 259.348 20.7874C260.384 23.5355 260.588 26.8075 259.959 30.6035C259.354 34.2598 258.125 37.3863 256.274 39.9829C254.434 42.5796 252.082 44.565 249.217 45.939C246.365 47.313 243.122 48 239.489 48ZM241.165 12.2289L235.227 48H225.516L231.454 12.2289H241.165ZM223.629 31.4419L224.537 26.2719H243.331L242.423 31.4419H223.629ZM270.88 48H260.4L278.146 12.2289H291.42L297.289 48H286.809L283.316 22.08H283.037L270.88 48ZM271.299 33.8872H291.001L289.744 41.1532H270.042L271.299 33.8872ZM280.661 8.73567H275.91C276.329 6.22052 277.209 4.3458 278.548 3.11151C279.898 1.87722 281.395 1.26007 283.037 1.26007C283.945 1.26007 284.696 1.40563 285.29 1.69673C285.884 1.98784 286.39 2.3197 286.809 2.69231C287.228 3.06493 287.613 3.39679 287.962 3.6879C288.311 3.979 288.696 4.12455 289.115 4.12455C289.779 4.12455 290.291 3.88003 290.652 3.39097C291.025 2.90191 291.281 2.23819 291.42 1.39981H296.101C295.647 3.88003 294.745 5.74892 293.394 7.0065C292.043 8.26408 290.547 8.91033 288.905 8.94526C287.997 8.94526 287.252 8.79971 286.67 8.50861C286.099 8.2175 285.616 7.88564 285.22 7.51302C284.824 7.14041 284.451 6.80855 284.102 6.51744C283.753 6.22634 283.351 6.08078 282.897 6.08078C282.338 6.08078 281.86 6.30785 281.465 6.76197C281.069 7.20445 280.801 7.86235 280.661 8.73567ZM316.384 12.2289L310.446 48H300.734L306.673 12.2289H316.384Z" fill="white"/>
<defs>
<linearGradient id="paint0_linear_3660_5170" x1="9.46602" y1="108.341" x2="325.014" y2="108.341" gradientUnits="userSpaceOnUse">
<stop stop-color="#F75D2C"/>
<stop offset="0.1956" stop-color="#F7622A"/>
<stop offset="0.4349" stop-color="#F87123"/>
<stop offset="0.697" stop-color="#FA8A17"/>
<stop offset="0.9738" stop-color="#FDAC08"/>
<stop offset="1" stop-color="#FDB006"/>
</linearGradient>
<linearGradient id="paint1_linear_3660_5170" x1="50.283" y1="239.861" x2="294.981" y2="48.9736" gradientUnits="userSpaceOnUse">
<stop stop-color="#860017"/>
<stop offset="0.00332463" stop-color="#870017"/>
<stop offset="0.1387" stop-color="#AB0624"/>
<stop offset="0.2798" stop-color="#C90A2F"/>
<stop offset="0.4296" stop-color="#E00E37"/>
<stop offset="0.59" stop-color="#F0103C"/>
<stop offset="0.7682" stop-color="#FA1240"/>
<stop offset="1" stop-color="#FD1241"/>
</linearGradient>
</defs>
</svg>
