<svg width="130" height="43" viewBox="0 0 130 43" fill="none" xmlns="http://www.w3.org/2000/svg">
<g clip-path="url(#clip0_3839_5183)">
<path d="M130.824 10.8967C126.822 12.6998 122.751 14.3261 118.52 15.5292C114.327 16.7056 110.086 17.5768 105.829 18.3463C97.3898 19.8319 88.8872 20.9105 80.3372 21.4858C63.4837 22.5459 46.3439 21.7747 29.8457 18.1727C20.545 16.1451 11.4545 13.2615 2.55758 9.81598C2.03331 9.59567 1.65182 10.4891 2.17068 10.7415C17.5763 18.089 34.7972 21.7136 51.7487 23.0145C68.9947 24.3319 86.3782 23.2619 103.443 20.3554C108.236 19.5439 113.044 18.6361 117.72 17.3427C122.459 16.06 127.221 14.4509 131.449 11.8934C132.076 11.5036 131.504 10.5819 130.824 10.8967Z" fill="white"/>
<path d="M25.684 16.2175L8.48247 10.5159C7.51406 10.1878 6.58129 11.0215 6.74568 12.0067L9.97023 31.1067C10.1559 32.1616 11.4346 32.6079 12.2228 31.849L26.1997 18.4506C26.9074 17.7772 26.6524 16.5456 25.684 16.2175Z" fill="#F2565A"/>
<path d="M51.6412 19.9255L33.6687 17.6273C32.6679 17.4919 31.9062 18.4864 32.2419 19.4344L39.0654 37.5551C39.4546 38.5782 40.7819 38.7355 41.4257 37.8533L52.5747 22.0308C53.1434 21.2019 52.642 20.0609 51.6412 19.9255Z" fill="#9FC76E"/>
<path d="M76.8003 20.5274L58.7017 20.1561C57.6792 20.1492 57.0406 21.1974 57.4835 22.0974L66.1979 39.3806C66.6942 40.3557 68.0486 40.3525 68.5693 39.4165L77.9856 22.5099C78.4313 21.6273 77.7906 20.5289 76.8003 20.5274Z" fill="#F2565A"/>
<path d="M126.332 11.0984L109.001 16.3706C108.026 16.6689 107.725 17.8729 108.43 18.586L122.07 32.3064C122.834 33.0624 124.119 32.6844 124.33 31.6301L128.022 12.6374C128.221 11.6474 127.307 10.8001 126.332 11.0984Z" fill="#F2565A"/>
<path d="M102.69 16.3981L84.8317 19.5015C83.8465 19.6659 83.3842 20.8429 84.0093 21.6415L95.8639 36.9437C96.5156 37.7798 97.8757 37.5464 98.1771 36.5405L104.18 18.1349C104.476 17.1611 103.68 16.2016 102.69 16.3981Z" fill="#9FC76E"/>
<path d="M62.1875 22.9881C61.0312 22.9917 61.023 24.8064 62.1793 24.8029C63.3356 24.7993 63.3438 22.9846 62.1875 22.9881Z" fill="white"/>
<path d="M73.8303 23.2635C72.674 23.267 72.6658 25.0818 73.8221 25.0782C74.9784 25.0747 74.9866 23.26 73.8303 23.2635Z" fill="white"/>
<path d="M67.7439 23.1308C66.5876 23.1343 66.5794 24.949 67.7357 24.9455C68.892 24.9419 68.9002 23.1272 67.7439 23.1308Z" fill="white"/>
<path d="M67.8303 32.8202C66.674 32.8237 66.6658 34.6384 67.8221 34.6349C68.9784 34.6314 68.9866 32.8167 67.8303 32.8202Z" fill="white"/>
<path d="M70.1838 27.2726C69.0275 27.2762 69.0193 29.0909 70.1756 29.0874C71.3319 29.0838 71.3401 27.2691 70.1838 27.2726Z" fill="white"/>
<path d="M64.8833 27.7675C63.727 27.771 63.7188 29.5857 64.8751 29.5822C66.0314 29.5787 66.0396 27.7639 64.8833 27.7675Z" fill="white"/>
<path d="M19.3322 18.0543C18.0217 17.4045 16.6362 16.8081 15.2665 16.3135C14.6138 16.0715 13.9557 15.8617 13.2922 15.684C12.7838 15.5654 11.9066 15.0876 11.419 15.4348C11.3064 15.5149 11.2206 15.6326 11.199 15.761C11.199 15.761 11.199 15.761 11.1668 15.7556C10.6521 16.2633 10.972 17.1096 11.062 17.7522C11.1892 18.5661 11.3218 19.3478 11.4544 20.1296C11.7408 21.7628 12.0006 23.3585 12.3246 24.9649C12.4308 25.5111 13.2228 25.7104 13.5553 25.3041C15.4269 23.2086 17.4161 21.199 19.4321 19.2268C19.8126 18.9277 19.7868 18.2959 19.3322 18.0543ZM12.4106 17.9791C12.3362 17.6364 12.2618 17.2937 12.1553 16.9456C12.1181 16.7742 12.0488 16.5974 12.0437 16.4315L12.0491 16.3994C12.2364 16.4639 12.4182 16.5605 12.5734 16.6197C12.8516 16.7325 13.1243 16.8775 13.3971 17.0225C13.9748 17.3178 14.5204 17.6077 15.0981 17.9031C15.9218 18.3059 16.8152 18.6874 17.6819 19.0313C16.3466 20.4907 14.9525 21.9071 13.5585 23.3235C13.3407 22.2632 13.1175 21.235 12.8996 20.1747C12.7295 19.4197 12.554 18.6967 12.4106 17.9791Z" fill="white"/>
<path d="M123.212 27.4796C123.148 27.2707 123.042 27.1207 122.903 26.9652C122.812 26.9169 122.758 26.8419 122.667 26.7935C122.485 26.6969 122.298 26.6324 122.068 26.6266C121.902 26.6317 121.768 26.6422 121.624 26.7169C121.484 26.7595 121.34 26.8343 121.254 26.9519C121.136 27.0641 121.05 27.1818 121.023 27.3423C120.932 27.4921 120.91 27.6205 120.915 27.7865C120.931 27.8882 120.947 27.9899 120.963 28.0917C121.027 28.3005 121.134 28.4506 121.273 28.6061C121.364 28.6544 121.417 28.7294 121.508 28.7777C121.69 28.8744 121.877 28.9389 122.107 28.9446C122.273 28.9395 122.407 28.929 122.552 28.8543C122.691 28.8117 122.836 28.737 122.921 28.6194C123.039 28.5071 123.125 28.3895 123.152 28.229C123.243 28.0792 123.265 27.9508 123.26 27.7848C123.244 27.6831 123.228 27.5813 123.212 27.4796Z" fill="white"/>
<path d="M121.342 22.1127C121.278 21.9039 121.171 21.7538 121.032 21.5983C120.941 21.55 120.888 21.475 120.797 21.4267C120.615 21.33 120.428 21.2655 120.198 21.2598C120.032 21.2649 119.898 21.2754 119.753 21.3501C119.614 21.3927 119.469 21.4674 119.383 21.585C119.265 21.6973 119.18 21.8149 119.153 21.9754C119.061 22.1252 119.04 22.2536 119.045 22.4196C119.061 22.5213 119.077 22.6231 119.092 22.7248C119.156 22.9337 119.263 23.0837 119.402 23.2392C119.493 23.2875 119.547 23.3625 119.637 23.4109C119.819 23.5075 120.007 23.5721 120.237 23.5778C120.403 23.5727 120.537 23.5622 120.681 23.4875C120.82 23.4449 120.965 23.3701 121.051 23.2525C121.169 23.1403 121.255 23.0226 121.282 22.8621C121.373 22.7123 121.395 22.5839 121.389 22.4179C121.341 22.3108 121.358 22.2145 121.342 22.1127Z" fill="white"/>
<path d="M119.563 16.2C119.499 15.9911 119.425 15.8465 119.254 15.6856C119.163 15.6373 119.109 15.5622 119.018 15.5139C118.836 15.4173 118.649 15.3527 118.451 15.3524C118.285 15.3575 118.151 15.368 118.007 15.4427C117.867 15.4853 117.755 15.5654 117.637 15.6777C117.519 15.7899 117.433 15.9075 117.411 16.036C117.32 16.1857 117.299 16.3142 117.304 16.4801C117.32 16.5819 117.335 16.6836 117.351 16.7853C117.415 16.9942 117.49 17.1389 117.661 17.2997C117.752 17.3481 117.805 17.4231 117.896 17.4714C118.078 17.5681 118.265 17.6326 118.464 17.6329C118.629 17.6278 118.763 17.6173 118.908 17.5426C119.047 17.5 119.16 17.4199 119.278 17.3076C119.396 17.1954 119.482 17.0778 119.503 16.9493C119.594 16.7996 119.616 16.6711 119.611 16.5052C119.595 16.4035 119.579 16.3017 119.563 16.2Z" fill="white"/>
<path d="M35.8936 29.1295C36.083 27.8076 36.2725 26.4856 36.4298 25.1583C36.6574 23.4135 36.8208 21.6579 36.9841 19.9023C37.0493 19.3189 37.1199 18.7034 37.1958 18.0558L36.3877 17.9528C36.3117 18.6004 36.2624 19.2856 36.1919 19.9011C35.9751 21.5816 35.7262 23.2568 35.504 24.9695C35.4118 25.7134 35.2875 26.452 35.1953 27.1959L35.8936 29.1295Z" fill="white"/>
<path d="M49.6716 19.6601L49.1203 19.6003C48.929 22.1107 48.7056 24.6156 48.3858 27.1043C48.3585 27.463 48.3044 27.7841 48.245 28.1373L49.4629 26.3941C49.6431 24.146 49.7216 21.9138 49.6716 19.6601Z" fill="white"/>
<path d="M40.8521 38.3181C40.8684 38.2218 40.8846 38.1254 40.9008 38.0291C41.2905 35.321 41.6748 32.645 42.0645 29.9369C42.4434 27.293 42.8169 24.6812 43.1958 22.0374C43.342 20.9723 43.4883 19.9072 43.6291 18.8743L42.853 18.7767C42.6693 19.8685 42.491 20.9281 42.3072 22.0199C41.8587 24.6851 41.4048 27.3824 40.9883 30.053C40.5506 32.6539 40.1075 35.287 39.7019 37.8934C39.6857 37.9897 39.6695 38.086 39.6532 38.1824C39.974 38.4345 40.429 38.478 40.8521 38.3181Z" fill="white"/>
<path d="M98.7665 22.6391C99.7823 23.4705 100.83 24.3072 101.884 25.1119L102.147 24.3307C101.088 23.5582 100.024 22.8178 99.003 22.0185C99.6643 20.2477 100.326 18.4768 100.923 16.6951L100.312 16.7905C99.6512 18.3633 98.9849 19.9682 98.356 21.5464C97.3615 20.7847 96.3725 19.9909 95.3834 19.197C95.6412 18.646 95.9044 18.063 96.1623 17.512L95.4501 17.6233C95.2568 17.987 95.0314 18.3453 94.8327 18.7411C94.5119 18.489 94.2019 18.1727 93.849 17.9152L93.4742 17.9842C93.8751 18.3488 94.2385 18.7402 94.6448 19.0727C93.7858 20.6452 92.991 22.2285 92.1909 23.8439C91.0419 22.6269 89.9037 21.3457 88.7976 20.0699C88.9533 19.7329 89.0824 19.3584 89.2382 19.0214C89.2919 18.8983 89.3402 18.8074 89.394 18.6843L88.6122 18.8169C88.5101 19.0309 88.4027 19.277 88.3006 19.491C88.2472 19.4159 88.1884 19.373 88.135 19.298C88.0227 19.18 87.9426 19.0675 87.8358 18.9174L87.2575 19.0182C87.53 19.3613 87.7703 19.6989 88.0161 20.0044C87.5971 20.9245 87.1781 21.8446 86.7858 22.8022C86.5655 23.3265 86.3452 23.8507 86.1624 24.3483L86.7553 25.1415C86.9918 24.5209 87.2284 23.9003 87.497 23.2851C87.841 22.4184 88.2225 21.525 88.5664 20.6584C89.6404 21.9288 90.784 23.1779 91.9276 24.427C91.2079 25.9569 90.4881 27.4867 89.7951 29.0541L90.5804 30.0778C91.2789 28.4783 91.9506 26.8413 92.6811 25.2472C92.8468 25.4402 93.0124 25.6332 93.1835 25.794C93.9424 26.5822 94.7334 27.3757 95.5244 28.1692C94.8314 29.7366 94.1438 31.2719 93.4507 32.8393C93.3541 33.0211 93.2895 33.2084 93.1875 33.4224L93.8927 34.3335C94.0538 33.9644 94.2525 33.5686 94.4137 33.1995C95.0476 31.7872 95.6548 30.3375 96.262 28.8877C96.9729 29.5687 97.6517 30.2443 98.3626 30.9252C98.7902 31.3274 99.2233 31.6975 99.6563 32.0675L99.9144 31.3185C99.428 30.8734 98.9683 30.4658 98.4818 30.0207C97.8243 29.4148 97.199 28.8142 96.5469 28.1762C96.778 27.5877 97.0358 27.0367 97.2669 26.4482C97.7667 25.2446 98.2505 23.9391 98.7665 22.6391ZM96.3895 26.1685C96.18 26.6285 95.9705 27.0886 95.7931 27.554C94.8844 26.6747 94.0133 25.7686 93.1421 24.8625C93.0887 24.7875 93.0032 24.7071 92.9444 24.6641C92.9498 24.632 92.9552 24.5999 92.9927 24.5732C93.7341 22.9149 94.4754 21.2566 95.2168 19.5982C96.1308 20.4455 97.0824 21.266 98.0394 22.0545C98.0715 22.0599 98.0982 22.0974 98.1303 22.1028C97.5714 23.4616 96.9805 24.8151 96.3895 26.1685Z" fill="white"/>
</g>
<defs>
<clipPath id="clip0_3839_5183">
<rect width="128.198" height="42.2983" fill="white" transform="translate(0.987549)"/>
</clipPath>
</defs>
</svg>
