<svg width="222" height="293" viewBox="0 0 222 293" fill="none" xmlns="http://www.w3.org/2000/svg">
<g opacity="0.5">
<path opacity="0.4" d="M126.839 276.625C126.839 277.837 125.837 278.892 124.572 278.892C123.307 278.892 122.305 277.89 122.305 276.625C122.305 275.359 123.307 274.358 124.572 274.358C125.837 274.41 126.839 275.412 126.839 276.625ZM124.572 260.702C123.307 260.702 122.305 261.704 122.305 262.97C122.305 264.235 123.307 265.237 124.572 265.237C125.785 265.237 126.839 264.235 126.839 262.97C126.839 261.704 125.837 260.702 124.572 260.702ZM124.572 246.994C123.307 246.994 122.305 247.996 122.305 249.261C122.305 250.527 123.307 251.529 124.572 251.529C125.785 251.529 126.839 250.527 126.839 249.261C126.839 247.996 125.837 246.994 124.572 246.994ZM138.175 73.2183C138.86 73.2183 139.44 72.9019 139.862 72.4802C138.596 72.1638 137.331 71.8475 136.013 71.5311C136.224 72.4802 137.12 73.2183 138.175 73.2183ZM124.572 233.286C123.307 233.286 122.305 234.288 122.305 235.553C122.305 236.766 123.307 237.82 124.572 237.82C125.785 237.82 126.839 236.819 126.839 235.553C126.839 234.288 125.837 233.286 124.572 233.286ZM122.358 71.0039C122.358 72.2165 123.359 73.271 124.625 73.271C125.837 73.271 126.892 72.2693 126.892 71.0039C126.892 70.5821 126.786 70.1603 126.576 69.844C125.416 69.6858 124.256 69.5277 123.096 69.4222C122.621 69.7913 122.358 70.3712 122.358 71.0039ZM124.572 137.277C123.307 137.277 122.305 138.279 122.305 139.544C122.305 140.81 123.307 141.811 124.572 141.811C125.785 141.811 126.839 140.81 126.839 139.544C126.839 138.279 125.837 137.277 124.572 137.277ZM124.572 178.401C123.307 178.401 122.305 179.403 122.305 180.616C122.305 181.881 123.307 182.883 124.572 182.883C125.785 182.883 126.839 181.881 126.839 180.616C126.839 179.403 125.837 178.401 124.572 178.401ZM124.572 164.693C123.307 164.693 122.305 165.695 122.305 166.96C122.305 168.173 123.307 169.175 124.572 169.175C125.785 169.175 126.839 168.173 126.839 166.96C126.839 165.695 125.837 164.693 124.572 164.693ZM124.572 150.985C123.307 150.985 122.305 151.987 122.305 153.252C122.305 154.465 123.307 155.519 124.572 155.519C125.785 155.519 126.839 154.518 126.839 153.252C126.839 151.987 125.837 150.985 124.572 150.985ZM124.572 192.162C123.307 192.162 122.305 193.164 122.305 194.376C122.305 195.642 123.307 196.644 124.572 196.644C125.785 196.644 126.839 195.642 126.839 194.376C126.839 193.164 125.837 192.162 124.572 192.162ZM138.175 260.702C136.962 260.702 135.908 261.704 135.908 262.97C135.908 264.235 136.909 265.237 138.175 265.237C139.44 265.237 140.442 264.235 140.442 262.97C140.389 261.704 139.387 260.702 138.175 260.702ZM124.572 205.87C123.307 205.87 122.305 206.872 122.305 208.137C122.305 209.35 123.307 210.404 124.572 210.404C125.785 210.404 126.839 209.403 126.839 208.137C126.839 206.872 125.837 205.87 124.572 205.87ZM124.572 219.578C123.307 219.578 122.305 220.58 122.305 221.845C122.305 223.058 123.307 224.112 124.572 224.112C125.785 224.112 126.839 223.111 126.839 221.845C126.839 220.58 125.837 219.578 124.572 219.578ZM138.175 233.286C136.962 233.286 135.908 234.288 135.908 235.553C135.908 236.766 136.909 237.82 138.175 237.82C139.44 237.82 140.442 236.819 140.442 235.553C140.389 234.288 139.387 233.286 138.175 233.286ZM138.175 192.162C136.962 192.162 135.908 193.164 135.908 194.376C135.908 195.642 136.909 196.644 138.175 196.644C139.44 196.644 140.442 195.642 140.442 194.376C140.389 193.164 139.387 192.162 138.175 192.162ZM138.175 205.87C136.962 205.87 135.908 206.872 135.908 208.137C135.908 209.35 136.909 210.404 138.175 210.404C139.44 210.404 140.442 209.403 140.442 208.137C140.389 206.872 139.387 205.87 138.175 205.87ZM138.175 96.1529C136.962 96.1529 135.908 97.1547 135.908 98.42C135.908 99.6854 136.909 100.687 138.175 100.687C139.44 100.687 140.442 99.6854 140.442 98.42C140.389 97.1547 139.387 96.1529 138.175 96.1529ZM138.175 246.994C136.962 246.994 135.908 247.996 135.908 249.261C135.908 250.527 136.909 251.529 138.175 251.529C139.44 251.529 140.442 250.527 140.442 249.261C140.389 247.996 139.387 246.994 138.175 246.994ZM138.175 274.41C136.962 274.41 135.908 275.412 135.908 276.678C135.908 277.89 136.909 278.945 138.175 278.945C139.44 278.945 140.442 277.943 140.442 276.678C140.389 275.412 139.387 274.41 138.175 274.41ZM138.175 219.578C136.962 219.578 135.908 220.58 135.908 221.845C135.908 223.058 136.909 224.112 138.175 224.112C139.44 224.112 140.442 223.111 140.442 221.845C140.389 220.58 139.387 219.578 138.175 219.578ZM138.175 123.569C136.962 123.569 135.908 124.571 135.908 125.836C135.908 127.102 136.909 128.103 138.175 128.103C139.44 128.103 140.442 127.102 140.442 125.836C140.389 124.571 139.387 123.569 138.175 123.569ZM138.175 109.861C136.962 109.861 135.908 110.863 135.908 112.128C135.908 113.393 136.909 114.395 138.175 114.395C139.44 114.395 140.442 113.393 140.442 112.128C140.389 110.863 139.387 109.861 138.175 109.861ZM138.175 137.277C136.962 137.277 135.908 138.279 135.908 139.544C135.908 140.81 136.909 141.811 138.175 141.811C139.44 141.811 140.442 140.81 140.442 139.544C140.389 138.279 139.387 137.277 138.175 137.277ZM138.175 178.401C136.962 178.401 135.908 179.403 135.908 180.616C135.908 181.881 136.909 182.883 138.175 182.883C139.44 182.883 140.442 181.881 140.442 180.616C140.389 179.403 139.387 178.401 138.175 178.401ZM138.175 150.985C136.962 150.985 135.908 151.987 135.908 153.252C135.908 154.465 136.909 155.519 138.175 155.519C139.44 155.519 140.442 154.518 140.442 153.252C140.389 151.987 139.387 150.985 138.175 150.985ZM138.175 164.693C136.962 164.693 135.908 165.695 135.908 166.96C135.908 168.173 136.909 169.175 138.175 169.175C139.44 169.175 140.442 168.173 140.442 166.96C140.389 165.695 139.387 164.693 138.175 164.693ZM138.175 82.4449C136.962 82.4449 135.908 83.4466 135.908 84.712C135.908 85.9773 136.909 86.9791 138.175 86.9791C139.44 86.9791 140.442 85.9773 140.442 84.712C140.389 83.4466 139.387 82.4449 138.175 82.4449ZM124.572 123.569C123.307 123.569 122.305 124.571 122.305 125.836C122.305 127.102 123.307 128.103 124.572 128.103C125.785 128.103 126.839 127.102 126.839 125.836C126.839 124.571 125.837 123.569 124.572 123.569ZM111.022 109.861C109.757 109.861 108.755 110.863 108.755 112.128C108.755 113.393 109.757 114.395 111.022 114.395C112.288 114.395 113.289 113.393 113.289 112.128C113.289 110.863 112.288 109.861 111.022 109.861ZM111.022 82.4449C109.757 82.4449 108.755 83.4466 108.755 84.712C108.755 85.9773 109.757 86.9791 111.022 86.9791C112.288 86.9791 113.289 85.9773 113.289 84.712C113.289 83.4466 112.288 82.4449 111.022 82.4449ZM111.022 123.569C109.757 123.569 108.755 124.571 108.755 125.836C108.755 127.102 109.757 128.103 111.022 128.103C112.288 128.103 113.289 127.102 113.289 125.836C113.289 124.571 112.288 123.569 111.022 123.569ZM95.2052 71.0039C95.2052 72.2165 96.2069 73.271 97.4723 73.271C98.6849 73.271 99.7394 72.2693 99.7394 71.0039C99.7394 70.3712 99.4758 69.7913 99.054 69.4222C97.8941 69.5277 96.7342 69.6858 95.5742 69.844C95.3634 70.1603 95.2052 70.5294 95.2052 71.0039ZM111.022 137.277C109.757 137.277 108.755 138.279 108.755 139.544C108.755 140.81 109.757 141.811 111.022 141.811C112.288 141.811 113.289 140.81 113.289 139.544C113.289 138.279 112.288 137.277 111.022 137.277ZM97.4723 219.578C96.2069 219.578 95.2052 220.58 95.2052 221.845C95.2052 223.058 96.2069 224.112 97.4723 224.112C98.6849 224.112 99.7394 223.111 99.7394 221.845C99.6867 220.58 98.6849 219.578 97.4723 219.578ZM111.022 150.985C109.757 150.985 108.755 151.987 108.755 153.252C108.755 154.465 109.757 155.519 111.022 155.519C112.288 155.519 113.289 154.518 113.289 153.252C113.289 151.987 112.288 150.985 111.022 150.985ZM97.4723 205.87C96.2069 205.87 95.2052 206.872 95.2052 208.137C95.2052 209.35 96.2069 210.404 97.4723 210.404C98.6849 210.404 99.7394 209.403 99.7394 208.137C99.6867 206.872 98.6849 205.87 97.4723 205.87ZM97.4723 260.702C96.2069 260.702 95.2052 261.704 95.2052 262.97C95.2052 264.235 96.2069 265.237 97.4723 265.237C98.6849 265.237 99.7394 264.235 99.7394 262.97C99.6867 261.704 98.6849 260.702 97.4723 260.702ZM97.4723 233.286C96.2069 233.286 95.2052 234.288 95.2052 235.553C95.2052 236.766 96.2069 237.82 97.4723 237.82C98.6849 237.82 99.7394 236.819 99.7394 235.553C99.6867 234.288 98.6849 233.286 97.4723 233.286ZM97.4723 274.41C96.2069 274.41 95.2052 275.412 95.2052 276.678C95.2052 277.89 96.2069 278.945 97.4723 278.945C98.6849 278.945 99.7394 277.943 99.7394 276.678C99.6867 275.412 98.6849 274.41 97.4723 274.41ZM97.4723 246.994C96.2069 246.994 95.2052 247.996 95.2052 249.261C95.2052 250.527 96.2069 251.529 97.4723 251.529C98.6849 251.529 99.7394 250.527 99.7394 249.261C99.6867 247.996 98.6849 246.994 97.4723 246.994ZM111.022 96.1529C109.757 96.1529 108.755 97.1547 108.755 98.42C108.755 99.6854 109.757 100.687 111.022 100.687C112.288 100.687 113.289 99.6854 113.289 98.42C113.289 97.1547 112.288 96.1529 111.022 96.1529ZM111.022 68.7368C109.757 68.7368 108.755 69.7386 108.755 71.0039C108.755 72.2165 109.757 73.271 111.022 73.271C112.288 73.271 113.289 72.2693 113.289 71.0039C113.289 69.7386 112.288 68.7368 111.022 68.7368ZM124.572 82.4449C123.307 82.4449 122.305 83.4466 122.305 84.712C122.305 85.9773 123.307 86.9791 124.572 86.9791C125.785 86.9791 126.839 85.9773 126.839 84.712C126.839 83.4466 125.837 82.4449 124.572 82.4449ZM111.022 274.41C109.757 274.41 108.755 275.412 108.755 276.678C108.755 277.89 109.757 278.945 111.022 278.945C112.288 278.945 113.289 277.943 113.289 276.678C113.289 275.412 112.288 274.41 111.022 274.41ZM111.022 260.702C109.757 260.702 108.755 261.704 108.755 262.97C108.755 264.235 109.757 265.237 111.022 265.237C112.288 265.237 113.289 264.235 113.289 262.97C113.289 261.704 112.288 260.702 111.022 260.702ZM124.572 96.1529C123.307 96.1529 122.305 97.1547 122.305 98.42C122.305 99.6854 123.307 100.687 124.572 100.687C125.785 100.687 126.839 99.6854 126.839 98.42C126.839 97.1547 125.837 96.1529 124.572 96.1529ZM124.572 109.861C123.307 109.861 122.305 110.863 122.305 112.128C122.305 113.393 123.307 114.395 124.572 114.395C125.785 114.395 126.839 113.393 126.839 112.128C126.839 110.863 125.837 109.861 124.572 109.861ZM111.022 192.162C109.757 192.162 108.755 193.164 108.755 194.376C108.755 195.642 109.757 196.644 111.022 196.644C112.288 196.644 113.289 195.642 113.289 194.376C113.289 193.164 112.288 192.162 111.022 192.162ZM111.022 205.87C109.757 205.87 108.755 206.872 108.755 208.137C108.755 209.35 109.757 210.404 111.022 210.404C112.288 210.404 113.289 209.403 113.289 208.137C113.289 206.872 112.288 205.87 111.022 205.87ZM111.022 164.693C109.757 164.693 108.755 165.695 108.755 166.96C108.755 168.173 109.757 169.175 111.022 169.175C112.288 169.175 113.289 168.173 113.289 166.96C113.289 165.695 112.288 164.693 111.022 164.693ZM111.022 246.994C109.757 246.994 108.755 247.996 108.755 249.261C108.755 250.527 109.757 251.529 111.022 251.529C112.288 251.529 113.289 250.527 113.289 249.261C113.289 247.996 112.288 246.994 111.022 246.994ZM111.022 178.401C109.757 178.401 108.755 179.403 108.755 180.616C108.755 181.881 109.757 182.883 111.022 182.883C112.288 182.883 113.289 181.881 113.289 180.616C113.289 179.403 112.288 178.401 111.022 178.401ZM111.022 233.286C109.757 233.286 108.755 234.288 108.755 235.553C108.755 236.766 109.757 237.82 111.022 237.82C112.288 237.82 113.289 236.819 113.289 235.553C113.289 234.288 112.288 233.286 111.022 233.286ZM111.022 219.578C109.757 219.578 108.755 220.58 108.755 221.845C108.755 223.058 109.757 224.112 111.022 224.112C112.288 224.112 113.289 223.111 113.289 221.845C113.289 220.58 112.288 219.578 111.022 219.578ZM205.977 137.277C204.712 137.277 203.71 138.279 203.71 139.544C203.71 140.81 204.712 141.811 205.977 141.811C207.242 141.811 208.244 140.81 208.244 139.544C208.244 138.279 207.242 137.277 205.977 137.277ZM165.274 246.994C164.009 246.994 163.06 247.996 163.06 249.261C163.06 250.527 164.062 251.529 165.274 251.529C166.54 251.529 167.542 250.527 167.542 249.261C167.542 247.996 166.54 246.994 165.274 246.994ZM192.427 178.401C191.162 178.401 190.16 179.403 190.16 180.616C190.16 181.881 191.162 182.883 192.427 182.883C193.692 182.883 194.694 181.881 194.694 180.616C194.694 179.403 193.692 178.401 192.427 178.401ZM192.427 150.985C191.162 150.985 190.16 151.987 190.16 153.252C190.16 154.465 191.162 155.519 192.427 155.519C193.692 155.519 194.694 154.518 194.694 153.252C194.694 151.987 193.692 150.985 192.427 150.985ZM192.427 164.693C191.162 164.693 190.16 165.695 190.16 166.96C190.16 168.173 191.162 169.175 192.427 169.175C193.692 169.175 194.694 168.173 194.694 166.96C194.694 165.695 193.692 164.693 192.427 164.693ZM192.427 205.87C191.162 205.87 190.16 206.872 190.16 208.137C190.16 209.35 191.162 210.404 192.427 210.404C193.692 210.404 194.694 209.403 194.694 208.137C194.694 206.872 193.692 205.87 192.427 205.87ZM192.427 233.286C191.162 233.286 190.16 234.288 190.16 235.553C190.16 236.766 191.162 237.82 192.427 237.82C193.692 237.82 194.694 236.819 194.694 235.553C194.694 234.288 193.692 233.286 192.427 233.286ZM192.427 251.476C193.692 251.476 194.694 250.474 194.694 249.209C194.694 247.996 193.692 246.942 192.427 246.942C191.162 246.942 190.16 247.943 190.16 249.209C190.16 250.474 191.214 251.476 192.427 251.476ZM217.312 208.085C217.312 209.139 218.051 209.983 219 210.246C219.369 208.823 219.738 207.346 220.107 205.923C219.949 205.87 219.738 205.87 219.579 205.87C218.314 205.87 217.312 206.872 217.312 208.085ZM58.9843 276.625C58.9843 275.359 57.9825 274.358 56.7172 274.358C55.5046 274.358 54.4501 275.359 54.4501 276.625C54.4501 276.888 54.5028 277.099 54.6083 277.363C55.4518 277.89 56.2954 278.365 57.1916 278.839C58.2461 278.628 58.9843 277.732 58.9843 276.625ZM192.427 137.277C191.162 137.277 190.16 138.279 190.16 139.544C190.16 140.81 191.162 141.811 192.427 141.811C193.692 141.811 194.694 140.81 194.694 139.544C194.694 138.279 193.692 137.277 192.427 137.277ZM192.427 219.578C191.162 219.578 190.16 220.58 190.16 221.845C190.16 223.058 191.162 224.112 192.427 224.112C193.692 224.112 194.694 223.111 194.694 221.845C194.694 220.58 193.692 219.578 192.427 219.578ZM192.427 109.861C191.162 109.861 190.16 110.863 190.16 112.128C190.16 113.393 191.162 114.395 192.427 114.395C193.692 114.395 194.694 113.393 194.694 112.128C194.694 110.863 193.692 109.861 192.427 109.861ZM192.427 123.569C191.162 123.569 190.16 124.571 190.16 125.836C190.16 127.102 191.162 128.103 192.427 128.103C193.692 128.103 194.694 127.102 194.694 125.836C194.694 124.571 193.692 123.569 192.427 123.569ZM192.427 192.162C191.162 192.162 190.16 193.164 190.16 194.376C190.16 195.642 191.162 196.644 192.427 196.644C193.692 196.644 194.694 195.642 194.694 194.376C194.694 193.164 193.692 192.162 192.427 192.162ZM205.977 233.286C204.712 233.286 203.71 234.288 203.71 235.553C203.71 236.766 204.712 237.82 205.977 237.82C207.242 237.82 208.244 236.819 208.244 235.553C208.244 234.288 207.242 233.286 205.977 233.286ZM219.579 164.693C218.367 164.693 217.312 165.695 217.312 166.96C217.312 168.173 218.314 169.175 219.579 169.175C220.845 169.175 221.847 168.173 221.847 166.96C221.794 165.695 220.792 164.693 219.579 164.693ZM205.977 219.578C204.712 219.578 203.71 220.58 203.71 221.845C203.71 223.058 204.712 224.112 205.977 224.112C207.242 224.112 208.244 223.111 208.244 221.845C208.244 220.58 207.242 219.578 205.977 219.578ZM205.977 123.569C204.712 123.569 203.71 124.571 203.71 125.836C203.71 127.102 204.712 128.103 205.977 128.103C207.242 128.103 208.244 127.102 208.244 125.836C208.244 124.571 207.242 123.569 205.977 123.569ZM219.579 178.401C218.367 178.401 217.312 179.403 217.312 180.616C217.312 181.881 218.314 182.883 219.579 182.883C220.845 182.883 221.847 181.881 221.847 180.616C221.794 179.403 220.792 178.401 219.579 178.401ZM219.579 192.162C218.367 192.162 217.312 193.164 217.312 194.376C217.312 195.642 218.314 196.644 219.579 196.644C220.845 196.644 221.847 195.642 221.847 194.376C221.794 193.164 220.792 192.162 219.579 192.162ZM217.312 153.252C217.312 154.465 218.314 155.519 219.579 155.519C219.738 155.519 219.949 155.519 220.107 155.467C219.79 153.99 219.421 152.567 219 151.143C218.051 151.354 217.312 152.198 217.312 153.252ZM205.977 164.693C204.712 164.693 203.71 165.695 203.71 166.96C203.71 168.173 204.712 169.175 205.977 169.175C207.242 169.175 208.244 168.173 208.244 166.96C208.244 165.695 207.242 164.693 205.977 164.693ZM205.977 150.985C204.712 150.985 203.71 151.987 203.71 153.252C203.71 154.465 204.712 155.519 205.977 155.519C207.242 155.519 208.244 154.518 208.244 153.252C208.244 151.987 207.242 150.985 205.977 150.985ZM97.4723 192.162C96.2069 192.162 95.2052 193.164 95.2052 194.376C95.2052 195.642 96.2069 196.644 97.4723 196.644C98.6849 196.644 99.7394 195.642 99.7394 194.376C99.6867 193.164 98.6849 192.162 97.4723 192.162ZM205.977 192.162C204.712 192.162 203.71 193.164 203.71 194.376C203.71 195.642 204.712 196.644 205.977 196.644C207.242 196.644 208.244 195.642 208.244 194.376C208.244 193.164 207.242 192.162 205.977 192.162ZM205.977 205.87C204.712 205.87 203.71 206.872 203.71 208.137C203.71 209.35 204.712 210.404 205.977 210.404C207.242 210.404 208.244 209.403 208.244 208.137C208.244 206.872 207.242 205.87 205.977 205.87ZM205.977 178.401C204.712 178.401 203.71 179.403 203.71 180.616C203.71 181.881 204.712 182.883 205.977 182.883C207.242 182.883 208.244 181.881 208.244 180.616C208.244 179.403 207.242 178.401 205.977 178.401ZM151.725 274.41C150.512 274.41 149.457 275.412 149.457 276.678C149.457 277.89 150.459 278.945 151.725 278.945C152.99 278.945 153.992 277.943 153.992 276.678C153.992 275.412 152.99 274.41 151.725 274.41ZM151.725 205.87C150.512 205.87 149.457 206.872 149.457 208.137C149.457 209.35 150.459 210.404 151.725 210.404C152.99 210.404 153.992 209.403 153.992 208.137C153.992 206.872 152.99 205.87 151.725 205.87ZM151.725 192.162C150.512 192.162 149.457 193.164 149.457 194.376C149.457 195.642 150.459 196.644 151.725 196.644C152.99 196.644 153.992 195.642 153.992 194.376C153.992 193.164 152.99 192.162 151.725 192.162ZM151.725 219.578C150.512 219.578 149.457 220.58 149.457 221.845C149.457 223.058 150.459 224.112 151.725 224.112C152.99 224.112 153.992 223.111 153.992 221.845C153.992 220.58 152.99 219.578 151.725 219.578ZM151.725 233.286C150.512 233.286 149.457 234.288 149.457 235.553C149.457 236.766 150.459 237.82 151.725 237.82C152.99 237.82 153.992 236.819 153.992 235.553C153.992 234.288 152.99 233.286 151.725 233.286ZM151.725 246.994C150.512 246.994 149.457 247.996 149.457 249.261C149.457 250.527 150.459 251.529 151.725 251.529C152.99 251.529 153.992 250.527 153.992 249.261C153.992 247.996 152.99 246.994 151.725 246.994ZM151.725 178.401C150.512 178.401 149.457 179.403 149.457 180.616C149.457 181.881 150.459 182.883 151.725 182.883C152.99 182.883 153.992 181.881 153.992 180.616C153.992 179.403 152.99 178.401 151.725 178.401ZM151.725 96.1529C150.512 96.1529 149.457 97.1547 149.457 98.42C149.457 99.6854 150.459 100.687 151.725 100.687C152.99 100.687 153.992 99.6854 153.992 98.42C153.992 97.1547 152.99 96.1529 151.725 96.1529ZM151.725 109.861C150.512 109.861 149.457 110.863 149.457 112.128C149.457 113.393 150.459 114.395 151.725 114.395C152.99 114.395 153.992 113.393 153.992 112.128C153.992 110.863 152.99 109.861 151.725 109.861ZM151.725 123.569C150.512 123.569 149.457 124.571 149.457 125.836C149.457 127.102 150.459 128.103 151.725 128.103C152.99 128.103 153.992 127.102 153.992 125.836C153.992 124.571 152.99 123.569 151.725 123.569ZM151.725 82.4449C150.512 82.4449 149.457 83.4466 149.457 84.712C149.457 85.9773 150.459 86.9791 151.725 86.9791C152.99 86.9791 153.992 85.9773 153.992 84.712C153.992 83.4466 152.99 82.4449 151.725 82.4449ZM151.725 164.693C150.512 164.693 149.457 165.695 149.457 166.96C149.457 168.173 150.459 169.175 151.725 169.175C152.99 169.175 153.992 168.173 153.992 166.96C153.992 165.695 152.99 164.693 151.725 164.693ZM151.725 137.277C150.512 137.277 149.457 138.279 149.457 139.544C149.457 140.81 150.459 141.811 151.725 141.811C152.99 141.811 153.992 140.81 153.992 139.544C153.992 138.279 152.99 137.277 151.725 137.277ZM151.725 150.985C150.512 150.985 149.457 151.987 149.457 153.252C149.457 154.465 150.459 155.519 151.725 155.519C152.99 155.519 153.992 154.518 153.992 153.252C153.992 151.987 152.99 150.985 151.725 150.985ZM165.274 260.702C164.009 260.702 163.06 261.704 163.06 262.97C163.06 264.235 164.062 265.237 165.274 265.237C166.54 265.237 167.542 264.235 167.542 262.97C167.542 261.704 166.54 260.702 165.274 260.702ZM165.274 205.87C164.009 205.87 163.06 206.872 163.06 208.137C163.06 209.35 164.062 210.404 165.274 210.404C166.54 210.404 167.542 209.403 167.542 208.137C167.542 206.872 166.54 205.87 165.274 205.87ZM165.274 192.162C164.009 192.162 163.06 193.164 163.06 194.376C163.06 195.642 164.062 196.644 165.274 196.644C166.54 196.644 167.542 195.642 167.542 194.376C167.542 193.164 166.54 192.162 165.274 192.162ZM151.725 260.702C150.512 260.702 149.457 261.704 149.457 262.97C149.457 264.235 150.459 265.237 151.725 265.237C152.99 265.237 153.992 264.235 153.992 262.97C153.992 261.704 152.99 260.702 151.725 260.702ZM165.274 164.693C164.009 164.693 163.06 165.695 163.06 166.96C163.06 168.173 164.062 169.175 165.274 169.175C166.54 169.175 167.542 168.173 167.542 166.96C167.542 165.695 166.54 164.693 165.274 164.693ZM165.274 233.286C164.009 233.286 163.06 234.288 163.06 235.553C163.06 236.766 164.062 237.82 165.274 237.82C166.54 237.82 167.542 236.819 167.542 235.553C167.542 234.288 166.54 233.286 165.274 233.286ZM165.274 219.578C164.009 219.578 163.06 220.58 163.06 221.845C163.06 223.058 164.062 224.112 165.274 224.112C166.54 224.112 167.542 223.111 167.542 221.845C167.542 220.58 166.54 219.578 165.274 219.578ZM165.274 178.401C164.009 178.401 163.06 179.403 163.06 180.616C163.06 181.881 164.062 182.883 165.274 182.883C166.54 182.883 167.542 181.881 167.542 180.616C167.542 179.403 166.54 178.401 165.274 178.401ZM165.274 109.861C164.009 109.861 163.06 110.863 163.06 112.128C163.06 113.393 164.062 114.395 165.274 114.395C166.54 114.395 167.542 113.393 167.542 112.128C167.542 110.863 166.54 109.861 165.274 109.861ZM165.274 96.1529C164.009 96.1529 163.06 97.1547 163.06 98.42C163.06 99.6854 164.062 100.687 165.274 100.687C166.54 100.687 167.542 99.6854 167.542 98.42C167.542 97.1547 166.54 96.1529 165.274 96.1529ZM165.274 137.277C164.009 137.277 163.06 138.279 163.06 139.544C163.06 140.81 164.062 141.811 165.274 141.811C166.54 141.811 167.542 140.81 167.542 139.544C167.542 138.279 166.54 137.277 165.274 137.277ZM165.274 123.569C164.009 123.569 163.06 124.571 163.06 125.836C163.06 127.102 164.062 128.103 165.274 128.103C166.54 128.103 167.542 127.102 167.542 125.836C167.542 124.571 166.54 123.569 165.274 123.569ZM165.274 150.985C164.009 150.985 163.06 151.987 163.06 153.252C163.06 154.465 164.062 155.519 165.274 155.519C166.54 155.519 167.542 154.518 167.542 153.252C167.542 151.987 166.54 150.985 165.274 150.985ZM16.0675 196.644C17.3328 196.644 18.3346 195.642 18.3346 194.376C18.3346 193.164 17.3328 192.162 16.0675 192.162C14.8548 192.162 13.8004 193.164 13.8004 194.376C13.8004 195.642 14.8021 196.644 16.0675 196.644ZM178.877 128.051C180.142 128.051 181.144 127.049 181.144 125.783C181.144 124.518 180.142 123.516 178.877 123.516C177.664 123.516 176.61 124.518 176.61 125.783C176.61 127.049 177.612 128.051 178.877 128.051ZM126.839 290.333C126.839 289.068 125.837 288.066 124.572 288.066C123.307 288.066 122.305 289.068 122.305 290.333C122.305 290.966 122.569 291.546 122.99 291.915C124.15 291.809 125.31 291.651 126.47 291.493C126.734 291.176 126.839 290.807 126.839 290.333ZM178.877 141.759C180.142 141.759 181.144 140.757 181.144 139.491C181.144 138.279 180.142 137.224 178.877 137.224C177.664 137.224 176.61 138.226 176.61 139.491C176.61 140.757 177.612 141.759 178.877 141.759ZM178.877 155.467C180.142 155.467 181.144 154.465 181.144 153.2C181.144 151.987 180.142 150.932 178.877 150.932C177.664 150.932 176.61 151.934 176.61 153.2C176.61 154.465 177.612 155.467 178.877 155.467ZM165.274 274.41C164.009 274.41 163.06 275.412 163.06 276.678C163.06 277.732 163.798 278.681 164.853 278.892C165.696 278.417 166.593 277.943 167.436 277.416C167.542 277.205 167.594 276.941 167.594 276.678C167.542 275.412 166.54 274.41 165.274 274.41ZM138.175 288.119C137.12 288.119 136.277 288.857 136.013 289.806C137.278 289.489 138.596 289.173 139.862 288.857C139.387 288.382 138.807 288.119 138.175 288.119ZM178.877 114.342C180.142 114.342 181.144 113.341 181.144 112.075C181.144 110.863 180.142 109.808 178.877 109.808C177.664 109.808 176.61 110.81 176.61 112.075C176.61 113.341 177.612 114.342 178.877 114.342ZM178.877 224.06C180.142 224.06 181.144 223.058 181.144 221.793C181.144 220.527 180.142 219.526 178.877 219.526C177.664 219.526 176.61 220.527 176.61 221.793C176.61 223.058 177.612 224.06 178.877 224.06ZM178.877 237.768C180.142 237.768 181.144 236.766 181.144 235.501C181.144 234.235 180.142 233.234 178.877 233.234C177.664 233.234 176.61 234.235 176.61 235.501C176.61 236.766 177.612 237.768 178.877 237.768ZM178.877 251.476C180.142 251.476 181.144 250.474 181.144 249.209C181.144 247.996 180.142 246.942 178.877 246.942C177.664 246.942 176.61 247.943 176.61 249.209C176.61 250.474 177.612 251.476 178.877 251.476ZM178.877 210.352C180.142 210.352 181.144 209.35 181.144 208.085C181.144 206.819 180.142 205.817 178.877 205.817C177.664 205.817 176.61 206.819 176.61 208.085C176.61 209.35 177.612 210.352 178.877 210.352ZM178.877 182.936C180.142 182.936 181.144 181.934 181.144 180.668C181.144 179.456 180.142 178.454 178.877 178.454C177.664 178.454 176.61 179.456 176.61 180.668C176.61 181.934 177.612 182.936 178.877 182.936ZM178.877 196.644C180.142 196.644 181.144 195.642 181.144 194.376C181.144 193.164 180.142 192.162 178.877 192.162C177.664 192.162 176.61 193.164 176.61 194.376C176.61 195.642 177.612 196.644 178.877 196.644ZM178.877 169.175C180.142 169.175 181.144 168.173 181.144 166.96C181.144 165.695 180.142 164.693 178.877 164.693C177.664 164.693 176.61 165.695 176.61 166.96C176.61 168.173 177.612 169.175 178.877 169.175ZM43.1673 164.693C41.9546 164.693 40.9002 165.695 40.9002 166.96C40.9002 168.173 41.9019 169.175 43.1673 169.175C44.4326 169.175 45.4344 168.173 45.4344 166.96C45.4344 165.695 44.4326 164.693 43.1673 164.693ZM43.1673 178.401C41.9546 178.401 40.9002 179.403 40.9002 180.616C40.9002 181.881 41.9019 182.883 43.1673 182.883C44.4326 182.883 45.4344 181.881 45.4344 180.616C45.4344 179.403 44.4326 178.401 43.1673 178.401ZM43.1673 150.985C41.9546 150.985 40.9002 151.987 40.9002 153.252C40.9002 154.465 41.9019 155.519 43.1673 155.519C44.4326 155.519 45.4344 154.518 45.4344 153.252C45.4344 151.987 44.4326 150.985 43.1673 150.985ZM43.1673 205.87C41.9546 205.87 40.9002 206.872 40.9002 208.137C40.9002 209.35 41.9019 210.404 43.1673 210.404C44.4326 210.404 45.4344 209.403 45.4344 208.137C45.4344 206.872 44.4326 205.87 43.1673 205.87ZM43.1673 137.277C41.9546 137.277 40.9002 138.279 40.9002 139.544C40.9002 140.81 41.9019 141.811 43.1673 141.811C44.4326 141.811 45.4344 140.81 45.4344 139.544C45.4344 138.279 44.4326 137.277 43.1673 137.277ZM43.1673 192.162C41.9546 192.162 40.9002 193.164 40.9002 194.376C40.9002 195.642 41.9019 196.644 43.1673 196.644C44.4326 196.644 45.4344 195.642 45.4344 194.376C45.4344 193.164 44.4326 192.162 43.1673 192.162ZM113.289 290.333C113.289 289.068 112.288 288.066 111.022 288.066C109.757 288.066 108.755 289.068 108.755 290.333C108.755 291.598 109.757 292.6 111.022 292.6C112.288 292.6 113.289 291.598 113.289 290.333ZM43.1673 123.569C41.9546 123.569 40.9002 124.571 40.9002 125.836C40.9002 127.102 41.9019 128.103 43.1673 128.103C44.4326 128.103 45.4344 127.102 45.4344 125.836C45.4344 124.571 44.4326 123.569 43.1673 123.569ZM83.8697 288.119C83.1843 288.119 82.6043 288.435 82.1825 288.857C83.4479 289.173 84.7133 289.489 86.0313 289.806C85.8204 288.857 84.9242 288.119 83.8697 288.119ZM99.6867 290.333C99.6867 289.068 98.6849 288.066 97.4196 288.066C96.1542 288.066 95.1524 289.068 95.1524 290.333C95.1524 290.755 95.3107 291.176 95.4688 291.493C96.6287 291.651 97.7886 291.809 98.9486 291.915C99.4231 291.546 99.6867 290.966 99.6867 290.333ZM43.1673 265.184C44.4326 265.184 45.4344 264.182 45.4344 262.917C45.4344 261.704 44.4326 260.65 43.1673 260.65C41.9546 260.65 40.9002 261.651 40.9002 262.917C40.9529 264.182 41.9546 265.184 43.1673 265.184ZM43.1673 96.1529C41.9546 96.1529 40.9002 97.1547 40.9002 98.42C40.9002 99.6854 41.9019 100.687 43.1673 100.687C44.4326 100.687 45.4344 99.6854 45.4344 98.42C45.4344 97.1547 44.4326 96.1529 43.1673 96.1529ZM43.1673 109.861C41.9546 109.861 40.9002 110.863 40.9002 112.128C40.9002 113.393 41.9019 114.395 43.1673 114.395C44.4326 114.395 45.4344 113.393 45.4344 112.128C45.4344 110.863 44.4326 109.861 43.1673 109.861ZM16.0675 237.768C17.3328 237.768 18.3346 236.766 18.3346 235.501C18.3346 234.235 17.3328 233.234 16.0675 233.234C14.8548 233.234 13.8004 234.235 13.8004 235.501C13.8004 236.766 14.8021 237.768 16.0675 237.768ZM29.6174 155.467C30.8828 155.467 31.8845 154.465 31.8845 153.2C31.8845 151.987 30.8828 150.932 29.6174 150.932C28.4048 150.932 27.403 151.934 27.403 153.2C27.403 154.465 28.4048 155.467 29.6174 155.467ZM29.6174 169.175C30.8828 169.175 31.8845 168.173 31.8845 166.96C31.8845 165.695 30.8828 164.693 29.6174 164.693C28.4048 164.693 27.403 165.695 27.403 166.96C27.403 168.173 28.4048 169.175 29.6174 169.175ZM29.6174 196.644C30.8828 196.644 31.8845 195.642 31.8845 194.376C31.8845 193.164 30.8828 192.162 29.6174 192.162C28.4048 192.162 27.403 193.164 27.403 194.376C27.403 195.642 28.4048 196.644 29.6174 196.644ZM29.6174 182.936C30.8828 182.936 31.8845 181.934 31.8845 180.668C31.8845 179.456 30.8828 178.454 29.6174 178.454C28.4048 178.454 27.403 179.456 27.403 180.668C27.403 181.934 28.4048 182.936 29.6174 182.936ZM29.6174 128.051C30.8828 128.051 31.8845 127.049 31.8845 125.783C31.8845 124.518 30.8828 123.516 29.6174 123.516C28.4048 123.516 27.403 124.518 27.403 125.783C27.403 127.049 28.4048 128.051 29.6174 128.051ZM43.1673 219.578C41.9546 219.578 40.9002 220.58 40.9002 221.845C40.9002 223.058 41.9019 224.112 43.1673 224.112C44.4326 224.112 45.4344 223.111 45.4344 221.845C45.4344 220.58 44.4326 219.578 43.1673 219.578ZM29.6174 141.759C30.8828 141.759 31.8845 140.757 31.8845 139.491C31.8845 138.279 30.8828 137.224 29.6174 137.224C28.4048 137.224 27.403 138.226 27.403 139.491C27.403 140.757 28.4048 141.759 29.6174 141.759ZM29.6174 109.861C28.4048 109.861 27.403 110.863 27.403 112.128C27.403 113.393 28.4048 114.395 29.6174 114.395C30.8828 114.395 31.8845 113.393 31.8845 112.128C31.8845 110.863 30.8828 109.861 29.6174 109.861ZM29.6174 251.476C30.8828 251.476 31.8845 250.474 31.8845 249.209C31.8845 247.996 30.8828 246.942 29.6174 246.942C28.4048 246.942 27.403 247.943 27.403 249.209C27.403 250.474 28.4048 251.476 29.6174 251.476ZM2.46488 155.467C3.73024 155.467 4.73198 154.465 4.73198 153.2C4.73198 152.145 3.99385 151.302 3.04483 151.038C2.67576 152.461 2.25399 153.938 1.93765 155.361C2.14854 155.467 2.30671 155.467 2.46488 155.467ZM97.4723 178.401C96.2069 178.401 95.2052 179.403 95.2052 180.616C95.2052 181.881 96.2069 182.883 97.4723 182.883C98.6849 182.883 99.7394 181.881 99.7394 180.616C99.6867 179.403 98.6849 178.401 97.4723 178.401ZM29.6174 224.06C30.8828 224.06 31.8845 223.058 31.8845 221.793C31.8845 220.527 30.8828 219.526 29.6174 219.526C28.4048 219.526 27.403 220.527 27.403 221.793C27.403 223.058 28.4048 224.06 29.6174 224.06ZM29.6174 210.352C30.8828 210.352 31.8845 209.35 31.8845 208.085C31.8845 206.819 30.8828 205.817 29.6174 205.817C28.4048 205.817 27.403 206.819 27.403 208.085C27.403 209.35 28.4048 210.352 29.6174 210.352ZM4.73198 208.085C4.73198 206.819 3.73024 205.817 2.46488 205.817C2.25399 205.817 2.09582 205.87 1.93765 205.87C2.25399 207.346 2.62304 208.77 3.04483 210.193C3.99385 209.983 4.73198 209.139 4.73198 208.085ZM2.46488 178.401C1.25225 178.401 0.197754 179.403 0.197754 180.616C0.197754 181.881 1.19952 182.883 2.46488 182.883C3.73024 182.883 4.73198 181.881 4.73198 180.616C4.73198 179.403 3.73024 178.401 2.46488 178.401ZM178.877 265.184C180.142 265.184 181.144 264.182 181.144 262.917C181.144 261.704 180.142 260.65 178.877 260.65C177.664 260.65 176.61 261.651 176.61 262.917C176.61 264.182 177.612 265.184 178.877 265.184ZM2.46488 164.693C1.25225 164.693 0.197754 165.695 0.197754 166.96C0.197754 168.173 1.19952 169.175 2.46488 169.175C3.73024 169.175 4.73198 168.173 4.73198 166.96C4.73198 165.695 3.73024 164.693 2.46488 164.693ZM2.46488 196.644C3.73024 196.644 4.73198 195.642 4.73198 194.376C4.73198 193.164 3.73024 192.162 2.46488 192.162C1.25225 192.162 0.197754 193.164 0.197754 194.376C0.250477 195.642 1.25225 196.644 2.46488 196.644ZM16.0675 224.06C17.3328 224.06 18.3346 223.058 18.3346 221.793C18.3346 220.527 17.3328 219.526 16.0675 219.526C14.8548 219.526 13.8004 220.527 13.8004 221.793C13.8004 223.058 14.8021 224.06 16.0675 224.06ZM163.06 84.712C163.06 85.9773 164.062 86.9791 165.274 86.9791C166.54 86.9791 167.542 85.9773 167.542 84.712C167.542 84.4484 167.489 84.1847 167.383 83.9738C166.54 83.4993 165.696 82.9721 164.8 82.4976C163.798 82.7085 163.06 83.6048 163.06 84.712ZM178.877 96.1529C177.664 96.1529 176.61 97.1547 176.61 98.42C176.61 99.6854 177.612 100.687 178.877 100.687C180.142 100.687 181.144 99.6854 181.144 98.42C181.091 97.1547 180.09 96.1529 178.877 96.1529ZM16.0675 182.936C17.3328 182.936 18.3346 181.934 18.3346 180.668C18.3346 179.456 17.3328 178.454 16.0675 178.454C14.8548 178.454 13.8004 179.456 13.8004 180.668C13.8004 181.934 14.8021 182.936 16.0675 182.936ZM16.0675 141.759C17.3328 141.759 18.3346 140.757 18.3346 139.491C18.3346 138.279 17.3328 137.224 16.0675 137.224C14.8548 137.224 13.8004 138.226 13.8004 139.491C13.8004 140.757 14.8021 141.759 16.0675 141.759ZM16.0675 169.175C17.3328 169.175 18.3346 168.173 18.3346 166.96C18.3346 165.695 17.3328 164.693 16.0675 164.693C14.8548 164.693 13.8004 165.695 13.8004 166.96C13.8004 168.173 14.8021 169.175 16.0675 169.175ZM16.0675 210.352C17.3328 210.352 18.3346 209.35 18.3346 208.085C18.3346 206.819 17.3328 205.817 16.0675 205.817C14.8548 205.817 13.8004 206.819 13.8004 208.085C13.8004 209.35 14.8021 210.352 16.0675 210.352ZM16.0675 155.467C17.3328 155.467 18.3346 154.465 18.3346 153.2C18.3346 151.987 17.3328 150.932 16.0675 150.932C14.8548 150.932 13.8004 151.934 13.8004 153.2C13.8004 154.465 14.8021 155.467 16.0675 155.467ZM16.0675 128.051C17.3328 128.051 18.3346 127.049 18.3346 125.783C18.3346 124.518 17.3328 123.516 16.0675 123.516C14.8548 123.516 13.8004 124.518 13.8004 125.783C13.8004 127.049 14.8021 128.051 16.0675 128.051ZM29.6174 237.768C30.8828 237.768 31.8845 236.766 31.8845 235.501C31.8845 234.235 30.8828 233.234 29.6174 233.234C28.4048 233.234 27.403 234.235 27.403 235.501C27.403 236.766 28.4048 237.768 29.6174 237.768ZM83.8697 137.277C82.6043 137.277 81.6026 138.279 81.6026 139.544C81.6026 140.81 82.6043 141.811 83.8697 141.811C85.0823 141.811 86.1368 140.81 86.1368 139.544C86.1368 138.279 85.1351 137.277 83.8697 137.277ZM83.8697 150.985C82.6043 150.985 81.6026 151.987 81.6026 153.252C81.6026 154.465 82.6043 155.519 83.8697 155.519C85.0823 155.519 86.1368 154.518 86.1368 153.252C86.1368 151.987 85.1351 150.985 83.8697 150.985ZM83.8697 123.569C82.6043 123.569 81.6026 124.571 81.6026 125.836C81.6026 127.102 82.6043 128.103 83.8697 128.103C85.0823 128.103 86.1368 127.102 86.1368 125.836C86.1368 124.571 85.1351 123.569 83.8697 123.569ZM83.8697 178.401C82.6043 178.401 81.6026 179.403 81.6026 180.616C81.6026 181.881 82.6043 182.883 83.8697 182.883C85.0823 182.883 86.1368 181.881 86.1368 180.616C86.1368 179.403 85.1351 178.401 83.8697 178.401ZM83.8697 192.162C82.6043 192.162 81.6026 193.164 81.6026 194.376C81.6026 195.642 82.6043 196.644 83.8697 196.644C85.0823 196.644 86.1368 195.642 86.1368 194.376C86.1368 193.164 85.1351 192.162 83.8697 192.162ZM83.8697 109.861C82.6043 109.861 81.6026 110.863 81.6026 112.128C81.6026 113.393 82.6043 114.395 83.8697 114.395C85.0823 114.395 86.1368 113.393 86.1368 112.128C86.1368 110.863 85.1351 109.861 83.8697 109.861ZM83.8697 164.693C82.6043 164.693 81.6026 165.695 81.6026 166.96C81.6026 168.173 82.6043 169.175 83.8697 169.175C85.0823 169.175 86.1368 168.173 86.1368 166.96C86.1368 165.695 85.1351 164.693 83.8697 164.693ZM70.3198 260.702C69.0544 260.702 68.0527 261.704 68.0527 262.97C68.0527 264.235 69.0544 265.237 70.3198 265.237C71.5851 265.237 72.5869 264.235 72.5869 262.97C72.5869 261.704 71.5851 260.702 70.3198 260.702ZM83.8697 96.1529C82.6043 96.1529 81.6026 97.1547 81.6026 98.42C81.6026 99.6854 82.6043 100.687 83.8697 100.687C85.0823 100.687 86.1368 99.6854 86.1368 98.42C86.1368 97.1547 85.1351 96.1529 83.8697 96.1529ZM70.3198 246.994C69.0544 246.994 68.0527 247.996 68.0527 249.261C68.0527 250.527 69.0544 251.529 70.3198 251.529C71.5851 251.529 72.5869 250.527 72.5869 249.261C72.5869 247.996 71.5851 246.994 70.3198 246.994ZM70.3198 274.41C69.0544 274.41 68.0527 275.412 68.0527 276.678C68.0527 277.89 69.0544 278.945 70.3198 278.945C71.5851 278.945 72.5869 277.943 72.5869 276.678C72.5869 275.412 71.5851 274.41 70.3198 274.41ZM83.8697 82.4449C82.6043 82.4449 81.6026 83.4466 81.6026 84.712C81.6026 85.9773 82.6043 86.9791 83.8697 86.9791C85.0823 86.9791 86.1368 85.9773 86.1368 84.712C86.1368 83.4466 85.1351 82.4449 83.8697 82.4449ZM83.8697 73.2183C84.9242 73.2183 85.7677 72.4802 86.0313 71.5311C84.766 71.8475 83.4479 72.1638 82.1825 72.4802C82.657 72.9547 83.237 73.2183 83.8697 73.2183ZM97.4723 96.1529C96.2069 96.1529 95.2052 97.1547 95.2052 98.42C95.2052 99.6854 96.2069 100.687 97.4723 100.687C98.6849 100.687 99.7394 99.6854 99.7394 98.42C99.6867 97.1547 98.6849 96.1529 97.4723 96.1529ZM97.4723 137.277C96.2069 137.277 95.2052 138.279 95.2052 139.544C95.2052 140.81 96.2069 141.811 97.4723 141.811C98.6849 141.811 99.7394 140.81 99.7394 139.544C99.6867 138.279 98.6849 137.277 97.4723 137.277ZM70.3198 233.286C69.0544 233.286 68.0527 234.288 68.0527 235.553C68.0527 236.766 69.0544 237.82 70.3198 237.82C71.5851 237.82 72.5869 236.819 72.5869 235.553C72.5869 234.288 71.5851 233.286 70.3198 233.286ZM97.4723 109.861C96.2069 109.861 95.2052 110.863 95.2052 112.128C95.2052 113.393 96.2069 114.395 97.4723 114.395C98.6849 114.395 99.7394 113.393 99.7394 112.128C99.6867 110.863 98.6849 109.861 97.4723 109.861ZM83.8697 205.87C82.6043 205.87 81.6026 206.872 81.6026 208.137C81.6026 209.35 82.6043 210.404 83.8697 210.404C85.0823 210.404 86.1368 209.403 86.1368 208.137C86.1368 206.872 85.1351 205.87 83.8697 205.87ZM97.4723 150.985C96.2069 150.985 95.2052 151.987 95.2052 153.252C95.2052 154.465 96.2069 155.519 97.4723 155.519C98.6849 155.519 99.7394 154.518 99.7394 153.252C99.6867 151.987 98.6849 150.985 97.4723 150.985ZM97.4723 164.693C96.2069 164.693 95.2052 165.695 95.2052 166.96C95.2052 168.173 96.2069 169.175 97.4723 169.175C98.6849 169.175 99.7394 168.173 99.7394 166.96C99.6867 165.695 98.6849 164.693 97.4723 164.693ZM97.4723 123.569C96.2069 123.569 95.2052 124.571 95.2052 125.836C95.2052 127.102 96.2069 128.103 97.4723 128.103C98.6849 128.103 99.7394 127.102 99.7394 125.836C99.6867 124.571 98.6849 123.569 97.4723 123.569ZM83.8697 233.286C82.6043 233.286 81.6026 234.288 81.6026 235.553C81.6026 236.766 82.6043 237.82 83.8697 237.82C85.0823 237.82 86.1368 236.819 86.1368 235.553C86.1368 234.288 85.1351 233.286 83.8697 233.286ZM83.8697 246.994C82.6043 246.994 81.6026 247.996 81.6026 249.261C81.6026 250.527 82.6043 251.529 83.8697 251.529C85.0823 251.529 86.1368 250.527 86.1368 249.261C86.1368 247.996 85.1351 246.994 83.8697 246.994ZM83.8697 219.578C82.6043 219.578 81.6026 220.58 81.6026 221.845C81.6026 223.058 82.6043 224.112 83.8697 224.112C85.0823 224.112 86.1368 223.111 86.1368 221.845C86.1368 220.58 85.1351 219.578 83.8697 219.578ZM97.4723 82.4449C96.2069 82.4449 95.2052 83.4466 95.2052 84.712C95.2052 85.9773 96.2069 86.9791 97.4723 86.9791C98.6849 86.9791 99.7394 85.9773 99.7394 84.712C99.6867 83.4466 98.6849 82.4449 97.4723 82.4449ZM83.8697 274.41C82.6043 274.41 81.6026 275.412 81.6026 276.678C81.6026 277.89 82.6043 278.945 83.8697 278.945C85.0823 278.945 86.1368 277.943 86.1368 276.678C86.1368 275.412 85.1351 274.41 83.8697 274.41ZM83.8697 260.702C82.6043 260.702 81.6026 261.704 81.6026 262.97C81.6026 264.235 82.6043 265.237 83.8697 265.237C85.0823 265.237 86.1368 264.235 86.1368 262.97C86.1368 261.704 85.1351 260.702 83.8697 260.702ZM56.7699 246.994C55.5573 246.994 54.5028 247.996 54.5028 249.261C54.5028 250.527 55.5045 251.529 56.7699 251.529C58.0353 251.529 59.037 250.527 59.037 249.261C58.9842 247.996 57.9825 246.994 56.7699 246.994ZM56.7699 192.162C55.5573 192.162 54.5028 193.164 54.5028 194.376C54.5028 195.642 55.5045 196.644 56.7699 196.644C58.0353 196.644 59.037 195.642 59.037 194.376C58.9842 193.164 57.9825 192.162 56.7699 192.162ZM56.7699 178.401C55.5573 178.401 54.5028 179.403 54.5028 180.616C54.5028 181.881 55.5045 182.883 56.7699 182.883C58.0353 182.883 59.037 181.881 59.037 180.616C58.9842 179.403 57.9825 178.401 56.7699 178.401ZM56.7699 205.87C55.5573 205.87 54.5028 206.872 54.5028 208.137C54.5028 209.35 55.5045 210.404 56.7699 210.404C58.0353 210.404 59.037 209.403 59.037 208.137C58.9842 206.872 57.9825 205.87 56.7699 205.87ZM56.7699 164.693C55.5573 164.693 54.5028 165.695 54.5028 166.96C54.5028 168.173 55.5045 169.175 56.7699 169.175C58.0353 169.175 59.037 168.173 59.037 166.96C58.9842 165.695 57.9825 164.693 56.7699 164.693ZM56.7699 219.578C55.5573 219.578 54.5028 220.58 54.5028 221.845C54.5028 223.058 55.5045 224.112 56.7699 224.112C58.0353 224.112 59.037 223.111 59.037 221.845C58.9842 220.58 57.9825 219.578 56.7699 219.578ZM56.7699 233.286C55.5573 233.286 54.5028 234.288 54.5028 235.553C54.5028 236.766 55.5045 237.82 56.7699 237.82C58.0353 237.82 59.037 236.819 59.037 235.553C58.9842 234.288 57.9825 233.286 56.7699 233.286ZM56.7699 96.1529C55.5573 96.1529 54.5028 97.1547 54.5028 98.42C54.5028 99.6854 55.5045 100.687 56.7699 100.687C58.0353 100.687 59.037 99.6854 59.037 98.42C58.9842 97.1547 57.9825 96.1529 56.7699 96.1529ZM56.7699 109.861C55.5573 109.861 54.5028 110.863 54.5028 112.128C54.5028 113.393 55.5045 114.395 56.7699 114.395C58.0353 114.395 59.037 113.393 59.037 112.128C58.9842 110.863 57.9825 109.861 56.7699 109.861ZM56.7699 150.985C55.5573 150.985 54.5028 151.987 54.5028 153.252C54.5028 154.465 55.5045 155.519 56.7699 155.519C58.0353 155.519 59.037 154.518 59.037 153.252C58.9842 151.987 57.9825 150.985 56.7699 150.985ZM43.1673 233.286C41.9546 233.286 40.9002 234.288 40.9002 235.553C40.9002 236.766 41.9019 237.82 43.1673 237.82C44.4326 237.82 45.4344 236.819 45.4344 235.553C45.4344 234.288 44.4326 233.286 43.1673 233.286ZM56.7699 260.702C55.5573 260.702 54.5028 261.704 54.5028 262.97C54.5028 264.235 55.5045 265.237 56.7699 265.237C58.0353 265.237 59.037 264.235 59.037 262.97C58.9842 261.704 57.9825 260.702 56.7699 260.702ZM56.7699 137.277C55.5573 137.277 54.5028 138.279 54.5028 139.544C54.5028 140.81 55.5045 141.811 56.7699 141.811C58.0353 141.811 59.037 140.81 59.037 139.544C58.9842 138.279 57.9825 137.277 56.7699 137.277ZM56.7699 123.569C55.5573 123.569 54.5028 124.571 54.5028 125.836C54.5028 127.102 55.5045 128.103 56.7699 128.103C58.0353 128.103 59.037 127.102 59.037 125.836C58.9842 124.571 57.9825 123.569 56.7699 123.569ZM70.3198 96.1529C69.0544 96.1529 68.0527 97.1547 68.0527 98.42C68.0527 99.6854 69.0544 100.687 70.3198 100.687C71.5851 100.687 72.5869 99.6854 72.5869 98.42C72.5869 97.1547 71.5851 96.1529 70.3198 96.1529ZM70.3198 178.401C69.0544 178.401 68.0527 179.403 68.0527 180.616C68.0527 181.881 69.0544 182.883 70.3198 182.883C71.5851 182.883 72.5869 181.881 72.5869 180.616C72.5869 179.403 71.5851 178.401 70.3198 178.401ZM70.3198 164.693C69.0544 164.693 68.0527 165.695 68.0527 166.96C68.0527 168.173 69.0544 169.175 70.3198 169.175C71.5851 169.175 72.5869 168.173 72.5869 166.96C72.5869 165.695 71.5851 164.693 70.3198 164.693ZM70.3198 150.985C69.0544 150.985 68.0527 151.987 68.0527 153.252C68.0527 154.465 69.0544 155.519 70.3198 155.519C71.5851 155.519 72.5869 154.518 72.5869 153.252C72.5869 151.987 71.5851 150.985 70.3198 150.985ZM70.3198 205.87C69.0544 205.87 68.0527 206.872 68.0527 208.137C68.0527 209.35 69.0544 210.404 70.3198 210.404C71.5851 210.404 72.5869 209.403 72.5869 208.137C72.5869 206.872 71.5851 205.87 70.3198 205.87ZM70.3198 192.162C69.0544 192.162 68.0527 193.164 68.0527 194.376C68.0527 195.642 69.0544 196.644 70.3198 196.644C71.5851 196.644 72.5869 195.642 72.5869 194.376C72.5869 193.164 71.5851 192.162 70.3198 192.162ZM70.3198 137.277C69.0544 137.277 68.0527 138.279 68.0527 139.544C68.0527 140.81 69.0544 141.811 70.3198 141.811C71.5851 141.811 72.5869 140.81 72.5869 139.544C72.5869 138.279 71.5851 137.277 70.3198 137.277ZM43.1673 246.994C41.9546 246.994 40.9002 247.996 40.9002 249.261C40.9002 250.527 41.9019 251.529 43.1673 251.529C44.4326 251.529 45.4344 250.527 45.4344 249.261C45.4344 247.996 44.4326 246.994 43.1673 246.994ZM56.7699 86.9264C58.0353 86.9264 59.037 85.9246 59.037 84.6592C59.037 83.6048 58.2462 82.6558 57.2444 82.4449C56.3481 82.9194 55.5045 83.3939 54.661 83.9211C54.5555 84.132 54.5028 84.3956 54.5028 84.6592C54.5028 85.9246 55.5045 86.9264 56.7699 86.9264ZM70.3198 82.4449C69.0544 82.4449 68.0527 83.4466 68.0527 84.712C68.0527 85.9773 69.0544 86.9791 70.3198 86.9791C71.5851 86.9791 72.5869 85.9773 72.5869 84.712C72.5869 83.4466 71.5851 82.4449 70.3198 82.4449ZM70.3198 219.578C69.0544 219.578 68.0527 220.58 68.0527 221.845C68.0527 223.058 69.0544 224.112 70.3198 224.112C71.5851 224.112 72.5869 223.111 72.5869 221.845C72.5869 220.58 71.5851 219.578 70.3198 219.578ZM70.3198 109.861C69.0544 109.861 68.0527 110.863 68.0527 112.128C68.0527 113.393 69.0544 114.395 70.3198 114.395C71.5851 114.395 72.5869 113.393 72.5869 112.128C72.5869 110.863 71.5851 109.861 70.3198 109.861ZM70.3198 123.569C69.0544 123.569 68.0527 124.571 68.0527 125.836C68.0527 127.102 69.0544 128.103 70.3198 128.103C71.5851 128.103 72.5869 127.102 72.5869 125.836C72.5869 124.571 71.5851 123.569 70.3198 123.569Z" fill="white"/>
</g>
<path d="M104.03 74.4409L140.21 150.669L165.065 70.0767L104.03 74.4409Z" fill="url(#paint0_linear_3670_5166)"/>
<path d="M104.03 74.4409L115.604 98.7972L123.848 86.0371L136.379 97.7165L145.455 84.4577L157.279 95.3474L165.065 70.0767L104.03 74.4409Z" fill="url(#paint1_radial_3670_5166)"/>
<path d="M158.029 92.147L146.08 79.5947L136.088 93.7264L124.181 81.1741L114.189 95.3058L113.648 94.7239L116.645 101.042L124.805 89.57L136.712 102.122L146.704 87.9906L156.405 98.2153L158.445 91.5235L158.029 92.147Z" fill="white"/>
<path d="M169.769 22.1118L144.581 63.9665L155.073 16.3345L169.769 22.1118Z" fill="white"/>
<path d="M105.196 33.625L125.347 68.5801L94.1632 41.5221L105.196 33.625Z" fill="white"/>
<path d="M136.921 0L133.923 63.0522L115.729 1.12222L136.921 0Z" fill="white"/>
<path d="M135.921 127.559C128.011 134.043 110.692 132.754 110.692 132.754C110.692 132.754 113.897 116.877 121.808 110.393C129.718 103.909 135.505 105.572 139.419 110.31C143.332 115.09 143.832 121.117 135.921 127.559Z" fill="url(#paint2_linear_3670_5166)"/>
<path d="M127.428 119.246C123.307 124.151 118.602 127.019 116.937 125.647C115.313 124.275 117.311 119.163 121.475 114.258C125.596 109.354 128.344 108.814 130.01 110.185C131.633 111.598 131.592 114.342 127.428 119.246Z" fill="#F15A29"/>
<path d="M85.1288 135.664C94.6629 139.363 110.692 132.754 110.692 132.754C110.692 132.754 102.698 118.664 93.1641 114.965C83.63 111.266 78.634 114.674 76.3858 120.368C74.1793 126.104 75.5948 132.006 85.1288 135.664Z" fill="url(#paint3_linear_3670_5166)"/>
<path d="M90.4579 125.148C95.9118 128.556 101.283 129.803 102.407 127.974C103.531 126.146 100.034 121.948 94.5796 118.54C89.1256 115.173 86.3778 115.505 85.2121 117.334C84.0463 119.163 84.9623 121.781 90.4579 125.148Z" fill="#F15A29"/>
<path d="M117.644 131.632C118.269 135.456 115.646 139.072 111.816 139.654C107.986 140.278 104.363 137.659 103.781 133.835C103.156 130.011 105.779 126.395 109.609 125.813C113.439 125.232 117.02 127.808 117.644 131.632Z" fill="#F7941E"/>
<path d="M158.07 188.408L85.7117 201.833L76.3026 151.292L148.661 137.867L158.07 188.408Z" fill="url(#paint4_linear_3670_5166)"/>
<path d="M156.114 177.851L154.573 169.538L139.211 191.899L147.537 190.362L156.114 177.851Z" fill="white"/>
<path d="M135.797 140.277L127.428 141.815L86.253 201.75L94.5796 200.171L135.797 140.277Z" fill="white"/>
<path d="M80.8823 175.897L82.4643 184.252L109.318 145.182L100.991 146.72L80.8823 175.897Z" fill="url(#paint5_linear_3670_5166)"/>
<path d="M151.201 151.458L149.66 143.104L112.732 196.804L121.058 195.266L151.201 151.458Z" fill="url(#paint6_linear_3670_5166)"/>
<path d="M157.862 149.713L71.9727 165.631L67.1016 139.488L152.991 123.527L157.862 149.713Z" fill="white"/>
<path d="M93.5387 212.307C85.7533 216.547 71.2649 212.64 71.2649 212.64C71.2649 212.64 76.5523 199.672 84.3378 195.432C92.1232 191.193 96.7861 193.562 99.3257 198.217C101.865 202.831 101.324 208.068 93.5387 212.307Z" fill="url(#paint7_radial_3670_5166)"/>
<path d="M87.6684 203.828C83.3386 207.361 78.9254 209.024 77.7181 207.611C76.5523 206.156 79.092 202.166 83.3802 198.633C87.7101 195.1 90.0832 195.1 91.2905 196.555C92.4979 197.968 91.9983 200.337 87.6684 203.828Z" fill="#1C75BC"/>
<path d="M49.0327 210.977C56.5683 215.674 71.2649 212.598 71.2649 212.598C71.2649 212.598 66.7685 199.381 59.2329 194.684C51.6972 189.988 46.9094 192.066 44.0783 196.596C41.2889 201.085 41.4971 206.322 49.0327 210.977Z" fill="url(#paint8_radial_3670_5166)"/>
<path d="M55.236 202.914C59.3577 206.655 63.6876 208.608 64.9366 207.237C66.1856 205.865 63.8958 201.709 59.7741 197.968C55.6524 194.227 53.2793 194.061 52.0303 195.432C50.7813 196.762 51.156 199.132 55.236 202.914Z" fill="#1C75BC"/>
<path d="M77.3434 212.806C77.2601 216.173 74.429 218.791 71.0567 218.708C67.6844 218.625 65.0615 215.799 65.1448 212.474C65.2281 209.107 68.0591 206.489 71.3898 206.572C74.8037 206.655 77.4266 209.44 77.3434 212.806Z" fill="#1C75BC"/>
<path d="M102.573 267.587L38.8325 267.38L38.9991 222.865L102.74 223.073L102.573 267.587Z" fill="url(#paint9_linear_3670_5166)"/>
<path opacity="0.5" d="M102.615 258.319V251.003L85.9614 267.546H93.2889L102.615 258.319Z" fill="white"/>
<path opacity="0.5" d="M91.3738 223.072L84.0463 223.031L39.2905 267.379L46.6596 267.421L91.3738 223.072Z" fill="white"/>
<path opacity="0.2" d="M38.9158 244.561V251.876L68.0591 222.989L60.7316 222.948L38.9158 244.561Z" fill="white"/>
<path opacity="0.2" d="M102.698 235.043V227.728L62.6468 267.462H69.9742L102.698 235.043Z" fill="white"/>
<path d="M108.652 234.627L33.0039 234.378L33.0872 211.31L108.735 211.601L108.652 234.627Z" fill="white"/>
<path d="M171.393 194.02L103.822 207.278L119.351 282.758L186.881 269.499L171.393 194.02Z" fill="url(#paint10_linear_3670_5166)"/>
<path d="M114.355 258.485L181.926 245.226L178.97 230.887L111.399 244.146L114.355 258.485Z" fill="url(#paint11_linear_3670_5166)"/>
<path d="M174.224 190.32L99.8253 204.951L103.822 225.359L178.262 210.77L174.224 190.32Z" fill="url(#paint12_linear_3670_5166)"/>
<path d="M130.551 198.924L146.663 277.396L159.569 274.861L143.457 196.389L130.551 198.924Z" fill="url(#paint13_linear_3670_5166)"/>
<path d="M165.231 190.902C156.405 198.217 137.004 196.929 137.004 196.929C137.004 196.929 140.459 179.098 149.244 171.783C158.07 164.468 164.607 166.255 168.978 171.575C173.433 176.854 174.058 183.587 165.231 190.902Z" fill="url(#paint14_linear_3670_5166)"/>
<path d="M155.656 181.675C151.076 187.203 145.83 190.445 143.998 188.949C142.125 187.411 144.373 181.675 148.953 176.147C153.532 170.619 156.613 169.996 158.445 171.534C160.277 173.03 160.235 176.106 155.656 181.675Z" fill="#1C75BC"/>
<path d="M108.36 200.42C119.06 204.493 137.004 196.929 137.004 196.929C137.004 196.929 127.928 181.218 117.228 177.144C106.528 173.071 100.908 176.937 98.4931 183.337C95.9951 189.78 97.6188 196.347 108.36 200.42Z" fill="url(#paint15_linear_3670_5166)"/>
<path d="M114.23 188.575C120.392 192.315 126.387 193.687 127.636 191.65C128.885 189.614 124.93 184.917 118.769 181.135C112.607 177.394 109.526 177.81 108.277 179.846C107.028 181.924 108.069 184.834 114.23 188.575Z" fill="#1C75BC"/>
<path d="M144.789 195.64C145.497 199.921 142.624 203.995 138.336 204.701C134.048 205.408 129.968 202.54 129.26 198.259C128.552 193.978 131.425 189.904 135.713 189.198C140.002 188.45 144.082 191.359 144.789 195.64Z" fill="white"/>
<defs>
<linearGradient id="paint0_linear_3670_5166" x1="106.855" y1="113.648" x2="167.889" y2="109.266" gradientUnits="userSpaceOnUse">
<stop stop-color="#11BBE9"/>
<stop offset="0.4371" stop-color="#5768BF"/>
<stop offset="1" stop-color="#AE018B"/>
</linearGradient>
<radialGradient id="paint1_radial_3670_5166" cx="0" cy="0" r="1" gradientUnits="userSpaceOnUse" gradientTransform="translate(152.532 60.6284) rotate(-4.09349) scale(64.4113 64.3048)">
<stop offset="0.3471" stop-color="#FBB040"/>
<stop offset="1" stop-color="#F15A29"/>
</radialGradient>
<linearGradient id="paint2_linear_3670_5166" x1="108.505" y1="127.73" x2="141.318" y2="113.31" gradientUnits="userSpaceOnUse">
<stop stop-color="#F15A29"/>
<stop offset="1" stop-color="#FBB040"/>
</linearGradient>
<linearGradient id="paint3_linear_3670_5166" x1="111.246" y1="127.294" x2="75.5588" y2="123.835" gradientUnits="userSpaceOnUse">
<stop stop-color="#F15A29"/>
<stop offset="1" stop-color="#FBB040"/>
</linearGradient>
<linearGradient id="paint4_linear_3670_5166" x1="81.0193" y1="176.563" x2="153.36" y2="163.082" gradientUnits="userSpaceOnUse">
<stop stop-color="#F15A29"/>
<stop offset="0.2764" stop-color="#F57D32"/>
<stop offset="0.5595" stop-color="#F8993A"/>
<stop offset="0.8072" stop-color="#FAAA3E"/>
<stop offset="0.9904" stop-color="#FBB040"/>
</linearGradient>
<linearGradient id="paint5_linear_3670_5166" x1="79.38" y1="167.776" x2="112.372" y2="161.627" gradientUnits="userSpaceOnUse">
<stop stop-color="#F15A29"/>
<stop offset="0.2764" stop-color="#F57D32"/>
<stop offset="0.5595" stop-color="#F8993A"/>
<stop offset="0.8072" stop-color="#FAAA3E"/>
<stop offset="0.9904" stop-color="#FBB040"/>
</linearGradient>
<linearGradient id="paint6_linear_3670_5166" x1="108.515" y1="174.176" x2="153.858" y2="165.726" gradientUnits="userSpaceOnUse">
<stop stop-color="#F15A29"/>
<stop offset="0.2764" stop-color="#F57D32"/>
<stop offset="0.5595" stop-color="#F8993A"/>
<stop offset="0.8072" stop-color="#FAAA3E"/>
<stop offset="0.9904" stop-color="#FBB040"/>
</linearGradient>
<radialGradient id="paint7_radial_3670_5166" cx="0" cy="0" r="1" gradientUnits="userSpaceOnUse" gradientTransform="translate(66.8946 214.748) rotate(-12.9273) scale(21.4925 21.4602)">
<stop stop-color="#1C75BC"/>
<stop offset="1" stop-color="#11BBE9"/>
</radialGradient>
<radialGradient id="paint8_radial_3670_5166" cx="0" cy="0" r="1" gradientUnits="userSpaceOnUse" gradientTransform="translate(70.9645 216.407) rotate(-163.76) scale(42.879 42.8186)">
<stop stop-color="#1C75BC"/>
<stop offset="0.00439751" stop-color="#1C76BC"/>
<stop offset="0.2668" stop-color="#1794D0"/>
<stop offset="0.5241" stop-color="#14AADE"/>
<stop offset="0.772" stop-color="#12B7E6"/>
<stop offset="1" stop-color="#11BBE9"/>
</radialGradient>
<linearGradient id="paint9_linear_3670_5166" x1="38.9175" y1="245.122" x2="102.65" y2="245.345" gradientUnits="userSpaceOnUse">
<stop stop-color="#11BBE9"/>
<stop offset="0.4371" stop-color="#5768BF"/>
<stop offset="1" stop-color="#AE018B"/>
</linearGradient>
<linearGradient id="paint10_linear_3670_5166" x1="122.061" y1="273.055" x2="179.221" y2="187.743" gradientUnits="userSpaceOnUse">
<stop stop-color="#11BBE9"/>
<stop offset="1" stop-color="#1C75BC"/>
</linearGradient>
<linearGradient id="paint11_linear_3670_5166" x1="117.111" y1="300.346" x2="164.117" y2="211.537" gradientUnits="userSpaceOnUse">
<stop stop-color="#11BBE9"/>
<stop offset="0.5506" stop-color="#96E1F5"/>
<stop offset="1" stop-color="white"/>
</linearGradient>
<linearGradient id="paint12_linear_3670_5166" x1="99.7522" y1="206.594" x2="178.299" y2="209.113" gradientUnits="userSpaceOnUse">
<stop stop-color="#1C75BC"/>
<stop offset="1" stop-color="#11BBE9"/>
</linearGradient>
<linearGradient id="paint13_linear_3670_5166" x1="133.533" y1="182.315" x2="148.648" y2="254.079" gradientUnits="userSpaceOnUse">
<stop stop-color="#11BBE9"/>
<stop offset="0.5506" stop-color="#96E1F5"/>
<stop offset="1" stop-color="white"/>
</linearGradient>
<linearGradient id="paint14_linear_3670_5166" x1="134.485" y1="191.305" x2="171.151" y2="174.869" gradientUnits="userSpaceOnUse">
<stop stop-color="#11BBE9"/>
<stop offset="0.5506" stop-color="#96E1F5"/>
<stop offset="1" stop-color="white"/>
</linearGradient>
<linearGradient id="paint15_linear_3670_5166" x1="137.552" y1="190.794" x2="97.5231" y2="187.212" gradientUnits="userSpaceOnUse">
<stop stop-color="#11BBE9"/>
<stop offset="0.5506" stop-color="#96E1F5"/>
<stop offset="1" stop-color="white"/>
</linearGradient>
</defs>
</svg>
